<svg width="80" height="80" viewBox="0 0 80 80" fill="none" xmlns="http://www.w3.org/2000/svg">
<path d="M0.353734 48.9233C10.7871 58.44 24.5937 64.1667 39.9204 64.1667C50.8537 64.1667 63.5737 60.7 72.3271 54.1667C73.7637 53.09 72.5137 51.45 71.0504 52.1233C61.2304 56.3167 50.5637 58.36 40.8504 58.36C26.4571 58.36 12.5404 54.3533 1.2604 47.74C0.273734 47.15 -0.469599 48.1733 0.353734 48.9233ZM57.2704 17.2C57.2704 16.7467 57.0271 16.5267 56.6037 16.5267H54.1337C54.0971 16.5233 54.0571 16.5233 54.0204 16.5233C53.6737 16.5233 53.3537 16.6233 53.0904 16.7967C52.9037 16.9567 52.7171 17.31 52.5571 17.8467L47.9537 35.8567L43.7504 17.8467C43.6471 17.3333 43.4571 16.9567 43.2471 16.7967C43.0337 16.61 42.6871 16.5267 42.1804 16.5267H40.0604C40.0204 16.5233 39.9837 16.5233 39.9437 16.5233C39.5904 16.5233 39.2604 16.6233 38.9871 16.7967C38.7771 16.9567 38.6171 17.31 38.4837 17.8467L34.3337 35.6433L29.8604 17.8467C29.7037 17.3333 29.5437 16.9567 29.3271 16.7967C29.1437 16.61 28.7971 16.5267 28.2937 16.5267H25.6837C25.2604 16.5267 25.0471 16.77 25.0471 17.2L25.0504 17.22C25.0904 17.6 25.1737 17.9667 25.2871 18.28L31.5371 39.0633C31.6971 39.5733 31.8837 39.95 32.0971 40.11C32.3104 40.3 32.6304 40.38 33.1104 40.38L35.3971 40.3767C35.8737 40.3767 36.2471 40.2967 36.4637 40.1067C36.6737 39.9167 36.8304 39.5667 36.9637 39.03L41.0637 21.72L45.1904 39.0567C45.2937 39.5967 45.4804 39.9467 45.6904 40.1333C45.9071 40.3233 46.2537 40.4033 46.7571 40.4033H49.0437C49.0771 40.4067 49.1071 40.4067 49.1404 40.4067C49.4804 40.4067 49.7971 40.3067 50.0571 40.1333C50.2704 39.9733 50.4571 39.6233 50.6171 39.0867L57.0271 18.3067L57.0171 18.3333C57.1004 18.1133 57.1671 17.89 57.2137 17.6333C57.2404 17.47 57.2704 17.3367 57.2704 17.2ZM72.2737 34.0067C72.2737 34.0333 72.2737 34.0533 72.2737 34.08C72.2737 35.1267 71.7271 36.0433 70.8904 36.56C69.9871 37.1533 68.6804 37.45 67.0071 37.45C65.9404 37.45 64.9037 37.3433 63.8404 37.1267C62.8004 36.91 61.8171 36.59 60.9137 36.1867C60.6471 36.08 60.4071 35.97 60.2471 35.9167C60.0871 35.8633 59.9271 35.8367 59.7671 35.8367C59.3704 35.8367 59.1571 36.1067 59.1571 36.67V38.04C59.1604 38.3133 59.2171 38.5733 59.3171 38.7933C59.4237 39.0367 59.7137 39.3067 60.1404 39.5433C60.8337 39.9467 61.8704 40.2967 63.2004 40.62C64.5304 40.94 65.9104 41.1 67.2937 41.1C68.6537 41.1 69.9004 40.91 71.0971 40.5367C72.2404 40.1867 73.2237 39.7033 74.0504 39.03C74.8737 38.3833 75.5137 37.58 75.9937 36.6633C76.4437 35.75 76.6837 34.7 76.6837 33.5433C76.6837 32.1467 76.2837 30.8833 75.4604 29.78C74.6371 28.68 73.2504 27.8167 71.3371 27.1967L67.5571 25.99C66.1471 25.5333 65.1637 25.02 64.6337 24.5067C64.1004 23.9967 63.8337 23.35 63.8337 22.5967C63.8337 21.4967 64.2604 20.7167 65.0837 20.2067C65.9071 19.6933 67.1071 19.4567 68.6237 19.4567C68.6837 19.4567 68.7471 19.4567 68.8104 19.4567C70.5904 19.4567 72.2837 19.84 73.7304 20.5033L73.7171 20.4967C74.0237 20.67 74.3637 20.7833 74.7404 20.8267C75.1404 20.8267 75.3537 20.53 75.3537 19.9633V18.7133C75.3571 18.6867 75.3571 18.6567 75.3571 18.6267C75.3571 18.3267 75.2671 18.05 75.1171 17.8267L75.1137 17.82C74.9037 17.5467 74.6371 17.3167 74.3171 17.1533C74.0537 16.9867 73.6804 16.8267 73.2004 16.6667C72.7237 16.51 72.2171 16.3733 71.6837 16.24C71.1237 16.1333 70.5671 16.0233 69.9571 15.9433C69.3704 15.8633 68.7571 15.8367 68.1737 15.8367C67.0037 15.8367 65.8871 15.9733 64.8204 16.2933C63.7537 16.6133 62.8537 17.07 62.0537 17.69C61.2537 18.28 60.6171 19.0333 60.1371 19.8933C59.6604 20.7567 59.4171 21.75 59.4171 22.8767C59.4237 24.3533 59.9237 25.7133 60.7504 26.7767C61.6271 27.9867 63.0637 28.9 65.0071 29.5133L68.8637 30.7267C70.1671 31.1567 71.0737 31.6167 71.5537 32.1233C72.0004 32.59 72.2737 33.23 72.2737 33.9333C72.2737 33.96 72.2737 33.98 72.2737 34.0033C72.2737 34.0033 72.2737 34.0033 72.2737 34.0067Z" fill="#F5F5F5"/>
<path d="M74.7462 60.5632C79.4296 56.5866 80.6529 48.2799 79.6962 47.0699C78.7396 45.8866 70.5162 44.8666 65.5162 48.4132C64.7429 48.9799 64.8762 49.7332 65.7262 49.6266C68.5729 49.2766 74.8529 48.5266 75.9729 49.9732C77.0896 51.3999 74.7229 57.3966 73.6562 60.0566C73.3362 60.8599 74.0296 61.1832 74.7462 60.5632ZM15.0662 26.4799C14.0829 26.3466 13.1529 26.2632 12.2462 26.2632C9.50624 26.2632 7.3529 26.9632 5.72957 28.3599C4.10624 29.7532 3.30957 31.6132 3.30957 33.8966C3.30957 36.0499 3.9729 37.7699 5.27624 39.0599C6.57957 40.3499 8.3629 40.9932 10.5962 40.9932C13.7362 40.9932 16.3462 39.7566 18.4196 37.2866L18.4729 37.4099C18.7262 37.9432 19.0029 38.4599 19.2462 38.8699L19.2662 38.9032C19.5429 39.3432 19.8562 39.7599 20.2029 40.1332C20.4662 40.3766 20.7329 40.5132 20.9996 40.5132H21.0029C21.2596 40.5032 21.4996 40.4132 21.6929 40.2699L23.3696 39.1432C23.7162 38.8732 23.8762 38.6032 23.8762 38.3366C23.8762 38.1466 23.8229 37.9332 23.6896 37.7199C23.3162 37.0199 23.0496 36.3732 22.8362 35.7799C22.6496 35.1899 22.5429 34.3866 22.5429 33.3899L22.4896 33.3932V24.6799C22.4896 21.7232 21.7462 19.5166 20.2829 18.0699C18.7929 16.6166 16.4796 15.8899 13.3129 15.8899C13.2629 15.8899 13.2096 15.8899 13.1596 15.8899C11.7396 15.8899 10.3596 16.0766 9.15957 16.3999C7.85624 16.7232 6.73957 17.1266 5.80957 17.6099L5.79624 17.6132C5.5129 17.7366 5.2629 17.9299 5.0629 18.1699C4.92957 18.3599 4.87624 18.6832 4.87624 19.1132V20.4299C4.87624 20.9932 5.0629 21.2632 5.43624 21.2632H5.43957C5.58957 21.2566 5.7329 21.2299 5.85957 21.1866L5.9129 21.1732C6.2329 21.0699 6.5429 20.9532 6.7929 20.8332C7.7229 20.4566 8.6829 20.1599 9.66624 19.9166C10.6496 19.6732 11.6096 19.5699 12.5429 19.5699C14.5896 19.5699 16.0262 19.9699 16.8762 20.8066C17.7029 21.6399 18.1262 23.0632 18.1262 25.1066V27.0699C17.0662 26.8299 16.0496 26.6132 15.0662 26.4799ZM18.1829 30.0832V31.2099C18.1829 32.1232 18.0729 32.9032 17.9162 33.5466C17.7562 34.1932 17.4362 34.7599 17.0096 35.2699C16.2929 36.0766 15.4396 36.6666 14.4829 36.9899C13.5229 37.3132 12.6196 37.4732 11.7429 37.4732C10.5162 37.4732 9.58624 37.1499 8.94957 36.4766C8.2829 35.8332 7.96624 34.8899 7.96624 33.6266C7.96624 32.2832 8.38957 31.2632 9.26624 30.5399C10.1462 29.8132 11.4496 29.4632 13.2329 29.4632C14.1162 29.4632 14.9829 29.5232 15.7329 29.6232L15.8462 29.6366C16.6929 29.7499 17.5229 29.9099 18.1829 30.0832Z" fill="#F5F5F5"/>
</svg>
