<svg width="80" height="80" viewBox="0 0 80 80" fill="#F5F5F5" xmlns="http://www.w3.org/2000/svg">
<path d="M5.95605 70.3662H8.55668C9.74168 70.3662 10.6023 70.535 11.1373 70.8725C11.6729 71.21 11.9404 71.7462 11.9404 72.4819C11.9404 72.9812 11.8229 73.3906 11.5886 73.7106C11.3542 74.0306 11.0423 74.2231 10.6536 74.2881V74.345C11.1836 74.4631 11.5654 74.6844 11.7998 75.0081C12.0342 75.3319 12.1517 75.7625 12.1517 76.3C12.1517 77.0625 11.8767 77.6569 11.3254 78.0837C10.7748 78.5106 10.0267 78.7237 9.08168 78.7237H5.95605V70.3662V70.3662ZM7.72793 73.6762H8.75668C9.23668 73.6762 9.5848 73.6019 9.7998 73.4537C10.0154 73.305 10.1229 73.0594 10.1229 72.7162C10.1229 72.3962 10.0061 72.1669 9.77168 72.0275C9.5373 71.8881 9.16668 71.8187 8.6598 71.8187H7.72793V73.6762V73.6762ZM7.72793 75.0825V77.2606H8.88293C9.37043 77.2606 9.73043 77.1675 9.96355 76.9806C10.1967 76.7937 10.3123 76.5081 10.3123 76.1231C10.3123 75.43 9.81668 75.0825 8.82605 75.0825H7.72793V75.0825ZM21.4067 74.5337C21.4067 75.9169 21.0636 76.9806 20.3779 77.7237C19.6923 78.4669 18.7092 78.8387 17.4286 78.8387C16.1479 78.8387 15.1648 78.4669 14.4792 77.7237C13.7929 76.9806 13.4504 75.9137 13.4504 74.5225C13.4504 73.1312 13.7942 72.0694 14.4823 71.3356C15.1704 70.6019 16.1561 70.235 17.4404 70.235C18.7248 70.235 19.7067 70.605 20.3873 71.3437C21.0667 72.0831 21.4067 73.1469 21.4067 74.5337V74.5337ZM15.3079 74.5337C15.3079 75.4675 15.4848 76.1706 15.8398 76.6431C16.1942 77.1156 16.7236 77.3519 17.4286 77.3519C18.8423 77.3519 19.5492 76.4125 19.5492 74.5337C19.5492 72.6512 18.8461 71.71 17.4398 71.71C16.7348 71.71 16.2029 71.9469 15.8448 72.4219C15.4867 72.8969 15.3079 73.6 15.3079 74.5337V74.5337ZM30.7248 74.5337C30.7248 75.9169 30.3817 76.9806 29.6961 77.7237C29.0104 78.4669 28.0273 78.8387 26.7467 78.8387C25.4661 78.8387 24.4829 78.4669 23.7973 77.7237C23.1111 76.9806 22.7686 75.9137 22.7686 74.5225C22.7686 73.1312 23.1123 72.0694 23.8004 71.3356C24.4886 70.6019 25.4742 70.235 26.7586 70.235C28.0429 70.235 29.0248 70.605 29.7054 71.3437C30.3842 72.0831 30.7248 73.1469 30.7248 74.5337ZM24.6254 74.5337C24.6254 75.4675 24.8023 76.1706 25.1573 76.6431C25.5117 77.1156 26.0411 77.3519 26.7461 77.3519C28.1598 77.3519 28.8667 76.4125 28.8667 74.5337C28.8667 72.6512 28.1636 71.71 26.7573 71.71C26.0523 71.71 25.5204 71.9469 25.1623 72.4219C24.8042 72.8969 24.6254 73.6 24.6254 74.5337ZM35.6804 78.7237H33.9086V71.8412H31.6392V70.3662H37.9498V71.8412H35.6804V78.7237ZM44.1686 76.4031C44.1686 77.1581 43.8973 77.7525 43.3542 78.1869C42.8111 78.6212 42.0554 78.8387 41.0879 78.8387C40.1961 78.8387 39.4073 78.6706 38.7217 78.3356V76.6894C39.2854 76.9406 39.7629 77.1181 40.1536 77.2212C40.5442 77.3244 40.9011 77.3756 41.2254 77.3756C41.6142 77.3756 41.9123 77.3012 42.1198 77.1531C42.3279 77.0044 42.4317 76.7837 42.4317 76.49C42.4317 76.3262 42.3861 76.1806 42.2948 76.0525C42.2036 75.925 42.0692 75.8019 41.8917 75.6837C41.7142 75.5656 41.3536 75.3769 40.8086 75.1181C40.2979 74.8781 39.9148 74.6475 39.6598 74.4262C39.4042 74.205 39.2004 73.9481 39.0479 73.655C38.8954 73.3612 38.8192 73.0181 38.8192 72.6262C38.8192 71.8869 39.0698 71.3056 39.5711 70.8825C40.0723 70.4594 40.7648 70.2481 41.6492 70.2481C42.0836 70.2481 42.4979 70.2994 42.8923 70.4025C43.2867 70.5056 43.6992 70.65 44.1298 70.8369L43.5579 72.2144C43.1123 72.0319 42.7436 71.9037 42.4517 71.8312C42.1598 71.7587 41.8736 71.7225 41.5917 71.7225C41.2561 71.7225 40.9992 71.8006 40.8198 71.9569C40.6404 72.1131 40.5511 72.3169 40.5511 72.5687C40.5511 72.725 40.5873 72.8612 40.6598 72.9775C40.7323 73.0937 40.8473 73.2062 41.0054 73.315C41.1636 73.4237 41.5379 73.6187 42.1286 73.9012C42.9098 74.275 43.4454 74.6494 43.7348 75.0244C44.0242 75.3994 44.1686 75.8581 44.1686 76.4031V76.4031ZM48.9079 78.7237H47.1361V71.8412H44.8667V70.3662H51.1773V71.8412H48.9079V78.7237ZM54.2354 75.5169V78.7237H52.4636V70.3662H54.8986C56.0342 70.3662 56.8742 70.5731 57.4192 70.9862C57.9642 71.4 58.2367 72.0281 58.2367 72.87C58.2367 73.3619 58.1017 73.7987 57.8311 74.1819C57.5604 74.565 57.1773 74.865 56.6823 75.0819C57.9398 76.9606 58.7592 78.1744 59.1404 78.7231H57.1742L55.1792 75.5162H54.2354V75.5169ZM54.2354 74.0762H54.8073C55.3673 74.0762 55.7811 73.9831 56.0479 73.7962C56.3148 73.6094 56.4479 73.3156 56.4479 72.9156C56.4479 72.5194 56.3117 72.2375 56.0392 72.0694C55.7667 71.9019 55.3448 71.8181 54.7729 71.8181H54.2354V74.0762V74.0762ZM65.3079 78.7237L64.7017 76.7344H61.6548L61.0486 78.7237H59.1392L62.0886 70.3325H64.2548L67.2161 78.7237H65.3079V78.7237ZM64.2786 75.2481C63.7186 73.4456 63.4029 72.4262 63.3323 72.19C63.2617 71.9537 63.2117 71.7669 63.1811 71.63C63.0554 72.1175 62.6954 73.3237 62.1004 75.2481H64.2786ZM74.0423 72.9731C74.0423 73.8725 73.7611 74.5606 73.1992 75.0362C72.6373 75.5131 71.8379 75.7512 70.8011 75.7512H70.0411V78.7237H68.2692V70.3662H70.9386C71.9523 70.3662 72.7229 70.5844 73.2511 71.0206C73.7786 71.4575 74.0423 72.1081 74.0423 72.9731V72.9731ZM70.0411 74.2994H70.6242C71.1692 74.2994 71.5767 74.1919 71.8473 73.9762C72.1179 73.7606 72.2529 73.4475 72.2529 73.0362C72.2529 72.6206 72.1392 72.3137 71.9129 72.1156C71.6861 71.9175 71.3304 71.8181 70.8467 71.8181H70.0404V74.2994H70.0411ZM46.2186 35.4744C44.9792 35.0662 43.1948 35 40.8654 35H32.4992V47.5H41.5142C43.0779 47.5 44.1761 47.3444 44.8086 47.2269C45.9229 47.0281 46.8548 46.6456 47.6036 46.1794C48.3523 45.7144 48.9679 45.0112 49.4504 44.1212C49.9323 43.2312 50.1742 42.1919 50.1742 41.0269C50.1742 39.6619 49.8248 38.5394 49.1261 37.5331C48.4279 36.5262 47.4586 35.8819 46.2186 35.4744ZM44.9336 30.0919C46.1648 29.7256 47.0929 29.0631 47.7161 28.215C48.3404 27.3669 48.6523 26.2756 48.6523 24.9937C48.6523 23.7794 48.3611 22.6969 47.7786 21.7725C47.1961 20.8487 46.3642 20.2219 45.2836 19.8806C44.2011 19.5406 42.3461 19.375 39.7173 19.375H32.4992V30.625H40.3161C42.4629 30.625 44.0017 30.3756 44.9336 30.0919V30.0919ZM73.1242 10.0787C73.1242 5.2025 69.1711 1.25 64.2948 1.25H15.7036C10.8273 1.25 6.87418 5.2025 6.87418 10.0787V58.6712C6.87418 63.5475 10.8273 67.5 15.7036 67.5H64.2948C69.1711 67.5 73.1242 63.5475 73.1242 58.6712V10.0787V10.0787ZM54.1054 45.7937C53.3823 47.2662 52.4873 48.4019 51.4229 49.2006C50.3579 49.9987 49.0223 50.7294 47.4167 51.1369C45.8111 51.545 43.8436 51.875 41.5142 51.875H27.4992V15H41.2898C44.0854 15 46.3267 15.3875 48.0154 16.1275C49.7048 16.8681 51.0267 18.0156 51.9848 19.5544C52.9411 21.0937 53.4198 22.7081 53.4198 24.3887C53.4198 25.9525 52.9948 27.4269 52.1473 28.8081C51.2986 30.1894 50.0173 31.305 48.3036 32.1531C50.5161 32.8019 52.2179 33.91 53.4073 35.4737C54.5967 37.0381 55.1917 38.885 55.1917 41.015C55.1911 42.7287 54.8298 44.3219 54.1054 45.7937V45.7937Z" fill="#F5F5F5"/>
</svg>
