<svg width="98" height="98" viewBox="10 0 98 98" fill="none" xmlns="http://www.w3.org/2000/svg">
<path d="M20.1142 50.7762C19.6763 34.597 31.7854 20.3196 47.5267 17.741C35.1542 17.9431 25.3052 23.0054 19.1005 33.8283C12.5498 45.2483 13 56.9042 20.3041 67.8588C26.7262 77.4873 36.1495 81.934 47.6553 82.0106C31.4577 79.239 20.5062 65.3077 20.1142 50.7792V50.7762ZM23.3574 40.0942C23.0205 40.9884 23.0634 41.0037 24.0373 41.0037H82.2646C82.2738 40.9118 82.2952 40.8598 82.283 40.8138C82.2247 40.5957 82.1604 40.3792 82.09 40.1646C79.7748 33.2678 75.4291 27.9238 69.4297 23.9333C62.6217 19.4039 55.0451 18.1054 47.1193 19.5907C35.3103 21.8018 27.5653 28.9589 23.3574 40.0942V40.0942ZM22.7755 44.4797C22.3774 44.4184 22.2702 44.6144 22.2212 44.9727C22.1018 45.87 21.9977 46.7673 21.9364 47.6738C21.9119 48.0444 21.9823 48.1485 22.359 48.1455C25.5073 48.124 28.6525 48.121 31.8007 48.1118C31.9753 48.121 32.1529 48.1363 32.3275 48.1363H73.1475C73.3221 48.1363 73.4997 48.121 73.6743 48.1118C76.795 48.121 79.9187 48.1179 83.0394 48.1485C83.4927 48.1516 83.5355 47.9587 83.4988 47.6157C83.4069 46.7918 83.266 45.968 83.2354 45.1412C83.214 44.5593 82.9873 44.4705 82.4545 44.4705C62.735 44.4858 43.0187 44.4827 23.2992 44.4827C23.1216 44.4827 22.944 44.5042 22.7694 44.4797H22.7755ZM83.0455 51.6061C79.9218 51.6245 76.8011 51.6306 73.6773 51.6367C73.5028 51.6275 73.3252 51.6122 73.1506 51.6122H32.3275C32.1529 51.6122 31.9753 51.6275 31.8007 51.6367C28.6586 51.6275 25.5165 51.6245 22.3743 51.6061C22.0252 51.603 21.9058 51.6643 21.9364 52.0593C22.0038 52.9873 22.0926 53.9091 22.2365 54.8309C22.2794 55.1065 22.3284 55.275 22.6806 55.275C25.9238 55.2505 29.1639 55.2443 32.4071 55.2321C32.6062 55.2443 32.8083 55.2658 33.0073 55.2658H72.4738C72.6728 55.2658 72.875 55.2443 73.074 55.2321C76.2958 55.2443 79.5206 55.2535 82.7423 55.2688C82.9965 55.2688 83.1711 55.229 83.1987 54.9136C83.2875 53.9612 83.3916 53.0118 83.5049 52.0624C83.5508 51.6857 83.3947 51.603 83.0455 51.6061V51.6061ZM32.107 53.8785L32.1008 53.8601L32.11 53.8662L32.107 53.8785ZM81.597 58.7478C62.3583 58.7325 43.1197 58.7325 23.8811 58.7387C23.6514 58.7387 23.3788 58.6039 23.192 58.8642C23.1338 59.1827 23.3053 59.4522 23.3972 59.734C27.4795 71.9503 40.9025 83.894 59.6052 79.9465C67.1665 78.3509 73.0067 74.0512 77.6494 68.0119C79.686 65.3598 81.2478 62.4443 82.1635 59.2103C82.5127 58.411 81.8236 58.7478 81.597 58.7478V58.7478Z" fill="#E1E1E1"/>
</svg>
