<svg width="80" height="80" viewBox="0 0 80 80" fill="none" xmlns="http://www.w3.org/2000/svg">
<path d="M66.2402 18.76V72.51C66.2402 74.585 64.5677 76.26 62.4902 76.26H17.4902C15.4152 76.26 13.7402 74.585 13.7402 72.51V7.51001C13.7402 5.43251 15.4152 3.76001 17.4902 3.76001H51.2402L66.2402 18.76Z" stroke="#E1E1E1" stroke-linecap="round" stroke-linejoin="round"/>
<path d="M12.5 60.01V72.51C12.5 75.28 14.73 77.51 17.5 77.51H62.5C65.27 77.51 67.5 75.28 67.5 72.51V60.01H12.5ZM23.6325 62.495C23.6741 62.4929 23.7159 62.4929 23.7575 62.495C23.7875 62.4939 23.8175 62.4939 23.8475 62.495H28.76C29.0915 62.495 29.4095 62.6267 29.6439 62.8611C29.8783 63.0955 30.01 63.4135 30.01 63.745C30.01 64.0765 29.8783 64.3945 29.6439 64.6289C29.4095 64.8633 29.0915 64.995 28.76 64.995H23.76C23.045 64.995 22.51 65.53 22.51 66.245C22.51 66.96 23.045 67.495 23.76 67.495C23.7892 67.494 23.8183 67.494 23.8475 67.495H26.26C26.3498 67.4937 26.4395 67.5021 26.5275 67.52C27.4696 67.5903 28.3508 68.0124 28.996 68.7026C29.6412 69.3927 30.0032 70.3003 30.01 71.245C30.01 73.2125 28.4525 74.8275 26.5175 74.965C26.4329 74.9839 26.3466 74.994 26.26 74.995H21.26C20.9285 74.995 20.6105 74.8633 20.3761 74.6289C20.1417 74.3945 20.01 74.0765 20.01 73.745C20.01 73.4135 20.1417 73.0955 20.3761 72.8611C20.6105 72.6267 20.9285 72.495 21.26 72.495H26.26C26.975 72.495 27.51 71.96 27.51 71.245C27.51 70.53 26.975 69.995 26.26 69.995H23.76C23.6811 69.9941 23.6024 69.9857 23.525 69.97C22.5769 69.9081 21.6873 69.4896 21.0352 68.7985C20.3831 68.1075 20.0168 67.1951 20.01 66.245C20.01 64.285 21.5525 62.675 23.4775 62.525C23.5285 62.5118 23.5803 62.5017 23.6325 62.495ZM38.7575 62.495C42.1975 62.495 45.0075 65.3075 45.0075 68.745C45.0075 70.015 44.6225 71.1975 43.965 72.1875L44.63 72.8525C44.7494 72.9678 44.8446 73.1057 44.9101 73.2583C44.9756 73.4108 45.0101 73.5748 45.0116 73.7408C45.013 73.9067 44.9814 74.0713 44.9185 74.225C44.8557 74.3786 44.7629 74.5181 44.6455 74.6355C44.5281 74.7529 44.3886 74.8457 44.2349 74.9085C44.0813 74.9714 43.9167 75.003 43.7507 75.0016C43.5848 75.0001 43.4208 74.9656 43.2682 74.9001C43.1157 74.8346 42.9778 74.7394 42.8625 74.62L42.1925 73.95C41.1765 74.6294 39.9822 74.993 38.76 74.995C37.104 74.9897 35.5174 74.3296 34.3464 73.1586C33.1754 71.9876 32.5153 70.401 32.51 68.745C32.51 65.3075 35.3225 62.495 38.76 62.495H38.7575ZM48.74 62.495C48.9075 62.4923 49.0739 62.5233 49.2292 62.5862C49.3845 62.649 49.5256 62.7425 49.644 62.861C49.7625 62.9794 49.856 63.1205 49.9188 63.2758C49.9817 63.4311 50.0127 63.5975 50.01 63.765V72.5H53.75C54.0815 72.5 54.3995 72.6317 54.6339 72.8661C54.8683 73.1005 55 73.4185 55 73.75C55 74.0815 54.8683 74.3995 54.6339 74.6339C54.3995 74.8683 54.0815 75 53.75 75H48.78C48.6372 75.0017 48.4951 74.9788 48.36 74.9325C48.3364 74.9249 48.3131 74.9165 48.29 74.9075C48.2239 74.8797 48.1603 74.8462 48.1 74.8075C48.07 74.7896 48.0409 74.7704 48.0125 74.75C48.0024 74.7418 47.9924 74.7335 47.9825 74.725C47.9541 74.7037 47.9265 74.6812 47.9 74.6575C47.8949 74.6492 47.8899 74.6409 47.885 74.6325C47.8756 74.6218 47.8665 74.611 47.8575 74.6C47.8069 74.5483 47.7609 74.4922 47.72 74.4325C47.7024 74.4081 47.6858 74.3831 47.67 74.3575C47.6445 74.3115 47.622 74.2639 47.6025 74.215C47.5897 74.1855 47.578 74.1554 47.5675 74.125C47.564 74.1142 47.5607 74.1034 47.5575 74.0925C47.5466 74.0555 47.5374 74.0179 47.53 73.98C47.5081 73.8689 47.5014 73.7554 47.51 73.6425V63.765C47.5074 63.6009 47.5371 63.4378 47.5975 63.2851C47.6578 63.1324 47.7477 62.9932 47.8619 62.8752C47.9761 62.7573 48.1125 62.663 48.2631 62.5978C48.4138 62.5325 48.5758 62.4976 48.74 62.495V62.495ZM38.76 64.985C36.675 64.985 35.01 66.65 35.01 68.735C35.0062 69.3687 35.1638 69.9928 35.4681 70.5487C35.7723 71.1045 36.2132 71.5736 36.749 71.9119C37.2849 72.2501 37.898 72.4462 38.5307 72.4817C39.1634 72.5173 39.7946 72.3911 40.365 72.115C40.1908 71.9393 40.0727 71.7159 40.0256 71.4731C39.9785 71.2302 40.0045 70.9788 40.1003 70.7508C40.1962 70.5227 40.3575 70.3282 40.5639 70.1919C40.7704 70.0556 41.0126 69.9836 41.26 69.985C41.5886 69.9877 41.903 70.1197 42.135 70.3525C42.4116 69.7818 42.5384 69.1502 42.5035 68.517C42.4687 67.8838 42.2732 67.2699 41.9357 66.733C41.5981 66.1962 41.1295 65.754 40.5739 65.4482C40.0184 65.1424 39.3942 64.983 38.76 64.985V64.985Z" fill="#E1E1E1"/>
<path d="M66.2402 18.76H54.9902C52.9152 18.76 51.2402 17.085 51.2402 15.01V3.76001" fill="#E1E1E1"/>
<path d="M66.2402 18.76H54.9902C52.9152 18.76 51.2402 17.085 51.2402 15.01V3.76001" stroke="#E1E1E1" stroke-linecap="round" stroke-linejoin="round"/>
<path d="M26.25 22.5002V26.2502H22.5V28.7502H26.25V32.5002H28.75V28.7502H32.5V26.2502H28.75V22.5002H26.25ZM33.75 30.0002C32.7075 30.0002 31.8125 30.4826 31.1475 31.1501C30.4825 31.8126 30 32.7102 30 33.7502V36.2502C30 37.2427 30.4425 38.0977 31.06 38.7502C30.4425 39.4052 30 40.2577 30 41.2502V43.7502C30 44.7427 30.4425 45.5977 31.06 46.2502C30.4425 46.9052 30 47.7577 30 48.7502V51.2502C30 52.2927 30.4825 53.1875 31.1475 53.8525C31.8125 54.5175 32.7075 55.0027 33.75 55.0027H46.25C47.2925 55.0027 48.1875 54.5175 48.8525 53.8525C49.5175 53.1875 50 52.2927 50 51.2527V48.7527C50 47.7577 49.5575 46.9027 48.94 46.2527C49.5575 45.5977 50 44.7427 50 43.7527V41.2527C50 40.2577 49.5575 39.4027 48.94 38.7527C49.5575 38.0977 50 37.2427 50 36.2527V33.7527C50 32.7102 49.5175 31.8127 48.8525 31.1477C48.1875 30.4827 47.2925 30.0002 46.25 30.0002H33.75ZM33.75 32.5002H46.25C46.4575 32.5002 46.8125 32.6425 47.085 32.915C47.3575 33.19 47.5 33.5402 47.5 33.7502V36.2502C47.4642 36.5687 47.3172 36.8643 47.085 37.0852C46.8643 37.3176 46.5685 37.4646 46.25 37.5002H33.75C33.4315 37.4646 33.1357 37.3176 32.915 37.0852C32.6826 36.8645 32.5356 36.5688 32.5 36.2502V33.7502C32.5 33.5427 32.6425 33.1875 32.915 32.915C33.1357 32.6826 33.4315 32.5359 33.75 32.5002V32.5002ZM33.75 40.0002H46.25C46.4575 40.0002 46.8125 40.1425 47.085 40.415C47.3575 40.69 47.5 41.0402 47.5 41.2502V43.7502C47.4642 44.0687 47.3172 44.3643 47.085 44.5852C46.8643 44.8176 46.5685 44.9646 46.25 45.0002H33.75C33.4315 44.9646 33.1357 44.8176 32.915 44.5852C32.6826 44.3645 32.5356 44.0688 32.5 43.7502V41.2502C32.5 41.0427 32.6425 40.6875 32.915 40.415C33.1357 40.1826 33.4315 40.0359 33.75 40.0002V40.0002ZM33.75 47.5002H46.25C46.4575 47.5002 46.8125 47.6425 47.085 47.915C47.3575 48.19 47.5 48.5402 47.5 48.7502V51.2502C47.4642 51.5687 47.3172 51.8643 47.085 52.0852C46.8643 52.3176 46.5685 52.4646 46.25 52.5002H33.75C33.4315 52.4646 33.1357 52.3176 32.915 52.0852C32.6826 51.8645 32.5356 51.5688 32.5 51.2502V48.7502C32.5 48.5427 32.6425 48.1875 32.915 47.915C33.1357 47.6826 33.4315 47.5359 33.75 47.5002V47.5002Z" fill="#E1E1E1"/>
</svg>
