<svg width="80" height="80" viewBox="0 0 80 80" fill="none" xmlns="http://www.w3.org/2000/svg">
<path d="M47.7474 34.7974C46.0368 34.7974 44.763 35.6374 44.763 37.6593C44.763 39.1824 45.6024 40.2399 47.6555 40.2399C49.3955 40.2399 50.578 39.2143 50.578 37.5962C50.578 35.7624 49.5199 34.7974 47.7474 34.7974V34.7974ZM44.328 49.0724C43.923 49.5693 43.5193 50.0974 43.5193 50.7206C43.5193 51.9637 45.1043 52.3374 47.2824 52.3374C49.0855 52.3374 51.5424 52.2112 51.5424 50.5343C51.5424 49.5374 50.3599 49.4762 48.8668 49.3824L44.328 49.0724ZM53.5311 34.8912C54.0905 35.6068 54.6824 36.6018 54.6824 38.0324C54.6824 41.4837 51.9768 43.5049 48.0593 43.5049C47.063 43.5049 46.1611 43.3812 45.6018 43.2256L44.5755 44.8737L47.6224 45.0593C53.0024 45.4024 56.1736 45.5581 56.1736 49.6924C56.1736 53.2693 53.0336 55.2893 47.6224 55.2893C41.9936 55.2893 39.8486 53.8587 39.8486 51.4031C39.8486 50.0031 40.4711 49.2587 41.5593 48.2306C40.5324 47.7968 40.1911 47.0199 40.1911 46.1799C40.1911 45.4956 40.533 44.8737 41.093 44.2824C41.653 43.6924 42.2749 43.1006 43.0205 42.4168C41.4968 41.6706 40.3468 40.0537 40.3468 37.7518C40.3468 34.1762 42.7099 31.7206 47.4674 31.7206C48.8049 31.7206 49.6143 31.8437 50.3286 32.0318H56.393V34.6743L53.5311 34.8912V34.8912ZM61.8636 29.2412C60.0905 29.2412 59.0643 28.2143 59.0643 26.4412C59.0643 24.6706 60.0905 23.7056 61.8636 23.7056C63.6674 23.7056 64.693 24.6699 64.693 26.4412C64.6936 28.2143 63.6674 29.2412 61.8636 29.2412ZM57.8511 47.9287V45.4731L59.438 45.2556C59.873 45.1931 59.9349 45.0999 59.9349 44.6324V35.4906C59.9349 35.1493 59.8424 34.9306 59.5305 34.8381L57.8511 34.2468L58.193 31.7293H64.6311V44.6331C64.6311 45.1318 64.6611 45.1931 65.1286 45.2562L66.7149 45.4737V47.9293H57.8511V47.9287ZM79.0118 46.7224C77.6736 47.3743 75.7155 47.9662 73.9418 47.9662C70.2418 47.9662 68.843 46.4749 68.843 42.9593V34.8124C68.843 34.6268 68.843 34.5018 68.5936 34.5018H66.4174V31.7343C69.1549 31.4224 70.2424 30.0543 70.5843 26.6649H73.5393V31.0818C73.5393 31.2987 73.5393 31.3931 73.788 31.3931H78.1724V34.5024H73.5393V41.9337C73.5393 43.7681 73.9749 44.4831 75.6536 44.4831C76.5255 44.4831 77.4261 44.2662 78.1724 43.9862L79.0118 46.7224V46.7224Z" fill="#E1E1E1"/>
<path d="M32.9375 38.5625L18.7193 24.345C17.9012 23.5263 16.5731 23.5263 15.7543 24.345L12.8018 27.2975L16.5462 31.0425C17.4175 30.7488 18.415 30.9456 19.1087 31.64C19.8062 32.3381 20.0018 33.3444 19.7006 34.2181L23.31 37.8275C24.1825 37.5269 25.1906 37.7213 25.8881 38.4194C26.8631 39.3938 26.8631 40.9731 25.8881 41.9481C24.9125 42.9231 23.3337 42.9231 22.3587 41.9481C21.6256 41.2144 21.4443 40.1375 21.8156 39.2344L18.4493 35.8681L18.4487 44.7269C18.6868 44.8444 18.9106 45.0006 19.1087 45.1981C20.0837 46.1725 20.0837 47.7513 19.1087 48.7275C18.1337 49.7019 16.5537 49.7019 15.58 48.7275C14.605 47.7513 14.605 46.1725 15.58 45.1981C15.8212 44.9575 16.0993 44.7756 16.3968 44.6538V35.7131C16.0993 35.5919 15.8212 35.4106 15.58 35.1688C14.8412 34.4306 14.6637 33.3475 15.0425 32.4406L11.3512 28.7481L1.60184 38.4969C0.782461 39.3163 0.782461 40.6444 1.60184 41.4638L15.82 55.6813C16.6387 56.5 17.9662 56.5 18.7862 55.6813L32.9375 41.5288C33.7568 40.71 33.7568 39.3813 32.9375 38.5625V38.5625Z" fill="#E1E1E1"/>
</svg>
