<svg width="60" height="85" viewBox="0 0 100 80" fill="none" xmlns="http://www.w3.org/2000/svg">
<g clip-path="">
<path d="M5.46021 78.1698L0 16.7068H60L54.5338 78.1602L29.9632 84.9962L5.46021 78.1698Z" fill="#E1E1E1"/>
<path d="M30 79.7707L49.8543 74.2469L54.5255 21.7322H30V79.7707Z" fill="#E1E1E1"/>
<path d="M30 44.528H20.0605L19.3741 36.8088H30V29.2705H11.165L11.3448 31.2929L13.191 52.0661H30V44.528ZM30 64.1055L29.9673 64.1143L21.6016 61.8474L21.0669 55.8353H13.5266L14.579 67.6713L29.9655 71.958L30 71.9483V64.1055Z" fill="#EBEBEB"/>
<path d="M5.58203 0.00390625H9.39922V3.78873H12.891V0.00390625H16.7084V11.4653H12.8912V7.62733H9.39939V11.4653H5.58236V0.00390625H5.58203V0.00390625ZM21.7281 3.80466H18.3678V0.00390625H28.9078V3.80466H25.5458V11.4653H21.7285L21.7281 3.80466V3.80466ZM30.5804 0.00390625H34.5605L37.009 4.03109L39.455 0.00390625H43.4368V11.4653H39.6353V5.78439L37.0091 9.85955H36.9436L34.3154 5.78439V11.4653H30.5806V0.00390625H30.5804ZM45.3366 0.00390625H49.1549V7.6768H54.523V11.4653H45.3366V0.00390625Z" fill="#E1E1E1"/>
<path d="M29.9736 44.528V52.0661H39.2229L38.351 61.8425L29.9736 64.1118V71.9543L45.3722 67.6713L45.4852 66.3978L47.2503 46.5522L47.4336 44.528H45.4094H29.9736ZM29.9736 29.2705V36.8088H48.1171L48.2677 35.1144L48.61 31.2929L48.7896 29.2705H29.9736Z" fill="white"/>
</g>
<defs>
<clipPath id="clip0_188_794">
<rect width="60" height="85" fill="white"/>
</clipPath>
</defs>
</svg>
