<svg width="80" height="80" viewBox="0 0 80 80" fill="#F5F5F5" xmlns="http://www.w3.org/2000/svg">
<path d="M32.8635 42.3856C32.8635 42.3856 30.811 43.58 34.3267 43.9837C38.5854 44.47 40.7623 44.4 45.4548 43.5131C45.4548 43.5131 46.6917 44.2862 48.4142 44.9562C37.8917 49.4643 24.5992 44.695 32.8635 42.3856ZM31.5767 36.5012C31.5767 36.5012 29.2742 38.2068 32.7923 38.5706C37.3423 39.04 40.9342 39.0787 47.1542 37.8812C47.1542 37.8812 48.0123 38.7537 49.3642 39.2293C36.6442 42.9506 22.476 39.5225 31.5767 36.5012V36.5012Z" fill="#F5F5F5"/>
<path d="M42.4154 26.5193C45.0098 29.5056 41.7354 32.1906 41.7354 32.1906C41.7354 32.1906 48.3186 28.7924 45.2954 24.5356C42.4711 20.5674 40.3067 18.5968 52.0273 11.7993C52.0279 11.7993 33.6286 16.3931 42.4154 26.5193Z" fill="#F5F5F5"/>
<path d="M56.3324 46.7381C56.3324 46.7381 57.8524 47.9912 54.6587 48.96C48.5862 50.7994 29.3812 51.3544 24.0468 49.0331C22.1305 48.1987 25.7262 47.0412 26.8568 46.7981C28.0362 46.5425 28.7099 46.5894 28.7099 46.5894C26.5774 45.0875 14.9255 49.5387 22.7918 50.8156C44.2443 54.2925 61.8962 49.2494 56.3324 46.7381V46.7381ZM33.8512 30.4044C33.8512 30.4044 24.083 32.725 30.3924 33.5687C33.0574 33.925 38.3662 33.8431 43.3149 33.4281C47.358 33.0887 51.4155 32.3631 51.4155 32.3631C51.4155 32.3631 49.9912 32.9744 48.9593 33.6781C39.038 36.2875 19.8762 35.0719 25.393 32.4044C30.0574 30.1475 33.8512 30.4044 33.8512 30.4044V30.4044ZM51.3749 40.1981C61.4593 34.9594 56.7962 29.9244 53.5418 30.6025C52.7462 30.7687 52.3887 30.9125 52.3887 30.9125C52.3887 30.9125 52.6855 30.4475 53.2499 30.2481C59.6887 27.9856 64.6393 36.9237 51.1737 40.4637C51.1737 40.4637 51.328 40.3237 51.3749 40.1981Z" fill="#F5F5F5"/>
<path d="M45.2958 0.820557C45.2958 0.820557 50.8802 6.40743 39.9983 14.9968C31.2721 21.8887 38.0083 25.8174 39.9946 30.3081C34.9008 25.7118 31.1646 21.6656 33.6708 17.9006C37.3515 12.3743 47.5483 9.69368 45.2958 0.820557V0.820557Z" fill="#F5F5F5"/>
<path d="M34.8429 54.3996C44.5204 55.0183 59.386 54.0552 59.7379 49.4758C59.7379 49.4758 59.0616 51.2115 51.7385 52.589C43.4773 54.144 33.2866 53.9633 27.2441 52.9658C27.2441 52.9658 28.4816 53.9908 34.8429 54.3996V54.3996Z" fill="#F5F5F5"/>
<path d="M59.2908 62.6131H58.9958V62.4481H59.7896V62.6131H59.4958V63.4363H59.2902L59.2908 62.6131V62.6131ZM60.8752 62.6544H60.8714L60.5789 63.4363H60.4439L60.1533 62.6544H60.1502V63.4363H59.9552V62.4481H60.2408L60.5102 63.1475L60.7802 62.4481H61.0639V63.4363H60.8752V62.6544V62.6544ZM33.2564 71.8981C32.3439 72.6894 31.3789 73.1344 30.5121 73.1344C29.2783 73.1344 28.6089 72.3931 28.6089 71.2063C28.6089 69.9219 29.3252 68.9813 32.1952 68.9813H33.2558V71.8981H33.2564ZM35.7758 74.7406V65.9425C35.7758 63.6931 34.4927 62.2094 31.4027 62.2094C29.5989 62.2094 28.0177 62.6556 26.7321 63.2231L27.1021 64.7813C28.1146 64.4094 29.4239 64.0644 30.7089 64.0644C32.4902 64.0644 33.2558 64.7813 33.2558 66.265V67.3769H32.3658C28.0402 67.3769 26.0883 69.055 26.0883 71.5788C26.0883 73.7531 27.3746 74.9888 29.7964 74.9888C31.3527 74.9888 32.5158 74.3463 33.6014 73.4056L33.7989 74.7413H35.7758V74.7406V74.7406ZM44.1833 74.7406H41.0414L37.2596 62.435H40.0039L42.3514 69.9969L42.8733 72.2688C44.0583 68.9825 44.8983 65.6463 45.3183 62.4356H47.9877C47.2733 66.4863 45.9858 70.9344 44.1833 74.7406ZM56.2383 71.8981C55.3227 72.6894 54.3571 73.1344 53.4933 73.1344C52.2583 73.1344 51.5896 72.3931 51.5896 71.2063C51.5896 69.9219 52.3077 68.9813 55.1746 68.9813H56.2377V71.8981H56.2383ZM58.7589 74.7406V65.9425C58.7589 63.6931 57.4721 62.2094 54.3846 62.2094C52.5789 62.2094 50.9983 62.6556 49.7127 63.2231L50.0833 64.7813C51.0958 64.4094 52.4071 64.0644 53.6921 64.0644C55.4708 64.0644 56.2383 64.7813 56.2383 66.265V67.3769H55.3483C51.0214 67.3769 49.0702 69.055 49.0702 71.5788C49.0702 73.7531 50.3552 74.9888 52.7764 74.9888C54.3333 74.9888 55.4946 74.3463 56.5833 73.4056L56.7821 74.7413H58.7589V74.7406V74.7406ZM23.3258 76.8319C22.6089 77.8813 21.4477 78.7119 20.1777 79.18L18.9346 77.7144C19.9014 77.2181 20.7296 76.4175 21.1152 75.6713C21.4477 75.0069 21.5858 74.1525 21.5858 72.1081V58.0569H24.2633V71.915C24.2633 74.6494 24.0458 75.755 23.3258 76.8319V76.8319Z" fill="#F5F5F5"/>
</svg>
