<svg width="80" height="80" viewBox="0 0 80 80" fill="none" xmlns="http://www.w3.org/2000/svg">
<path d="M1.25062 56.5362H3.81813V46.3969L7.79312 55.2362C8.26187 56.3062 8.90375 56.6844 10.1631 56.6844C11.4225 56.6844 12.04 56.3062 12.5087 55.2362L16.4838 46.3969V56.5362H19.0513V46.4137C19.0513 45.4262 18.6562 44.9481 17.8412 44.7019C15.8906 44.0931 14.5819 44.62 13.9894 45.9369L10.0888 54.6606L6.31187 45.9362C5.74375 44.62 4.41063 44.0931 2.46 44.7013C1.645 44.9481 1.25 45.4256 1.25 46.4131V56.5362H1.25062ZM21.1869 48.2825H23.7538V53.8688C23.73 54.1719 23.8512 54.8844 25.2575 54.9069C25.975 54.9181 30.7963 54.9069 30.8413 54.9069V48.255H33.4144C33.4263 48.255 33.4119 57.3262 33.4119 57.3637C33.4256 59.6012 30.6362 60.0869 29.35 60.1244H21.2425V58.3969C21.2562 58.3969 29.3444 58.3987 29.3644 58.3962C31.0175 58.2219 30.8219 57.4006 30.8212 57.1244V56.4506H25.3644C22.8256 56.4275 21.2081 55.3194 21.1875 54.0444C21.1863 53.9275 21.2431 48.3387 21.1869 48.2825V48.2825ZM35.3938 56.5362H42.7763C43.6406 56.5362 44.4806 56.3556 45.1469 56.0431C46.2575 55.5331 46.8006 54.8419 46.8006 53.9356V52.0594C46.8006 51.3187 46.1838 50.6269 44.9738 50.1669C44.3319 49.9194 43.5413 49.7888 42.7756 49.7888H39.6644C38.6275 49.7888 38.1338 49.4762 38.0106 48.785C37.9863 48.7025 37.9862 48.6369 37.9862 48.5544V47.3856C37.9862 47.32 37.9863 47.2537 38.0106 47.1719C38.1338 46.645 38.4056 46.4969 39.3194 46.4144L39.5662 46.3981H46.8994V44.6869H39.69C38.6531 44.6869 38.11 44.7525 37.6163 44.9006C36.0856 45.3781 35.4181 46.135 35.4181 47.4519V48.9494C35.4181 50.1019 36.7275 51.0894 38.9244 51.32C39.1719 51.3356 39.4181 51.3531 39.665 51.3531H42.3319C42.4306 51.3531 42.5294 51.3531 42.6038 51.3688C43.4188 51.4344 43.7637 51.5831 44.0112 51.8787C44.1594 52.0269 44.2081 52.1756 44.2081 52.3394V53.8375C44.2081 54.0181 44.085 54.2487 43.8381 54.4462C43.6162 54.6437 43.2456 54.7756 42.7519 54.8087L42.48 54.825H35.3938V56.5362V56.5362ZM62.8194 53.5575C62.8194 55.3181 64.1281 56.3056 66.7694 56.5037C67.0163 56.52 67.2631 56.5362 67.51 56.5362H74.2013V54.825H67.4613C65.955 54.825 65.3875 54.4462 65.3875 53.5406V44.6856H62.82V53.5575H62.8194ZM48.4394 53.6462V47.5431C48.4394 45.9931 49.5281 45.0525 51.6806 44.7556C51.9031 44.7225 52.1512 44.7062 52.3731 44.7062H57.2475C57.495 44.7062 57.7175 44.7225 57.9644 44.7556C60.1169 45.0525 61.2063 45.9925 61.2063 47.5431V53.6462C61.2063 54.905 60.7438 55.5775 59.6781 56.0162L62.2081 58.2994H59.2263L57.18 56.4519L55.12 56.5825H52.3731C51.9031 56.5825 51.4088 56.5169 50.8644 56.3681C49.2313 55.9231 48.4394 55.065 48.4394 53.6462V53.6462ZM51.2113 53.4981C51.2113 53.5806 51.2356 53.6637 51.2606 53.7625C51.4087 54.4719 52.0775 54.8675 53.0912 54.8675H55.4238L53.2812 52.9331H56.2631L58.1313 54.6206C58.4763 54.4362 58.7025 54.1562 58.7819 53.7956C58.8063 53.7131 58.8062 53.6306 58.8062 53.5481V47.6931C58.8062 47.6275 58.8063 47.5444 58.7819 47.4619C58.6331 46.8019 57.965 46.4231 56.9756 46.4231H53.0906C51.9531 46.4231 51.2106 46.9181 51.2106 47.6931V53.4981H51.2113ZM76.46 41.845C74.8819 41.8019 73.6763 41.9488 72.645 42.3831C72.3519 42.5069 71.885 42.51 71.8375 42.8769C71.9981 43.0462 72.0231 43.2981 72.1513 43.5056C72.3975 43.9037 72.8131 44.4375 73.1838 44.7169C73.5881 45.0225 74.0056 45.35 74.4406 45.615C75.2125 46.0862 76.075 46.355 76.8194 46.8262C77.2575 47.105 77.6925 47.455 78.1206 47.7694C78.3325 47.9237 78.4738 48.1656 78.7494 48.2625V48.2181C78.605 48.0344 78.5675 47.7819 78.435 47.5894L77.8512 47.0056C77.2806 46.2481 76.5569 45.5838 75.7863 45.0313C75.1725 44.5906 73.7987 43.995 73.5425 43.2806L73.4975 43.2362C73.9325 43.1869 74.4425 43.0294 74.8438 42.9219C75.5188 42.7406 76.1219 42.7875 76.8188 42.6075L77.7612 42.3375V42.1588C77.4094 41.7975 77.1575 41.3187 76.7737 40.9919C75.7694 40.1362 74.6719 39.2812 73.5425 38.5675C72.9162 38.1725 72.1419 37.9156 71.4775 37.5806C71.255 37.4675 70.8625 37.4094 70.7144 37.2212C70.365 36.7769 70.1756 36.2137 69.9062 35.6956C69.3437 34.6112 68.79 33.4262 68.2906 32.2844C67.9506 31.5062 67.7281 30.7387 67.3037 30.0406C65.2656 26.69 63.0719 24.6675 59.6737 22.68C58.9506 22.2569 58.08 22.0906 57.1606 21.8725L55.6794 21.7825C55.3787 21.6569 55.065 21.2881 54.7819 21.1094C53.6556 20.3981 50.7681 18.8512 49.9344 20.8856C49.4081 22.1694 50.7219 23.4219 51.1912 24.0725C51.5206 24.5287 51.9431 25.04 52.1788 25.5531C52.3338 25.8906 52.36 26.2287 52.4931 26.5856C52.8187 27.4644 53.1031 28.4212 53.525 29.2331C53.7381 29.6444 53.9738 30.0775 54.2431 30.445C54.4081 30.67 54.6919 30.77 54.7363 31.1181C54.4594 31.5056 54.4431 32.1081 54.2875 32.5987C53.5863 34.8106 53.8506 37.56 54.8712 39.1969C55.1844 39.7 55.9219 40.7775 56.9356 40.3637C57.8225 40.0025 57.625 38.8831 57.8788 37.895C57.9363 37.6719 57.9006 37.5069 58.0131 37.3569V37.4019L58.8212 39.0175C59.4194 39.9806 60.48 40.9862 61.3794 41.6656C61.8456 42.0175 62.2131 42.6269 62.8156 42.8325V42.7869H62.7712C62.6537 42.605 62.4719 42.53 62.3219 42.3831C61.9706 42.0388 61.58 41.6112 61.29 41.2162C60.4719 40.1062 59.7494 38.8906 59.0906 37.6256C58.7762 37.0219 58.5031 36.3556 58.2381 35.7406C58.1356 35.5037 58.1369 35.145 57.9244 35.0231C57.6331 35.4731 57.2062 35.8375 56.9812 36.3694C56.6225 37.2194 56.5762 38.2562 56.4431 39.3312L56.3531 39.3756C55.7275 39.225 55.5081 38.5812 55.2756 38.0294C54.6881 36.6337 54.5787 34.3856 55.0962 32.7787C55.23 32.3625 55.8344 31.0531 55.5894 30.6687C55.4725 30.2856 55.0869 30.0644 54.8719 29.7706C54.605 29.4087 54.3381 28.9325 54.1538 28.5137C53.6725 27.4256 53.4481 26.2037 52.9425 25.1031C52.7 24.5769 52.2912 24.045 51.955 23.5775C51.5831 23.0587 51.1662 22.6775 50.8775 22.0512C50.775 21.8287 50.6356 21.4719 50.7875 21.2431C50.8356 21.0887 50.905 21.0244 51.0575 20.9737C51.3175 20.7731 52.0425 21.0406 52.3138 21.1531C53.0338 21.4525 53.6344 21.7369 54.2444 22.1406C54.5369 22.335 54.8325 22.71 55.1869 22.8137H55.5906C56.2225 22.9587 56.9306 22.8581 57.5206 23.0375C58.5644 23.355 59.4994 23.8481 60.3481 24.3844C62.935 26.0181 65.0494 28.3431 66.4969 31.1169C66.7294 31.5637 66.8306 31.9894 67.035 32.4631C67.4487 33.4181 67.97 34.4012 68.3813 35.3356C68.7919 36.2675 69.1925 37.2081 69.7731 37.9837C70.0781 38.3912 71.2569 38.61 71.7925 38.8362C72.1681 38.995 72.7831 39.1606 73.1388 39.3744C73.8181 39.7844 74.4769 40.2725 75.1137 40.7212C75.4319 40.9475 76.4112 41.4394 76.46 41.845V41.845ZM56.3981 24.7456C56.0694 24.7394 55.8363 24.7819 55.59 24.8356V24.88H55.635C55.7919 25.2031 56.0688 25.4106 56.2631 25.6881L56.7125 26.6306L56.7569 26.5862C57.035 26.3906 57.1619 26.0775 57.1606 25.5987C57.0488 25.4812 57.0325 25.3344 56.9362 25.195C56.8087 25.0075 56.56 24.9025 56.3981 24.7456V24.7456Z" fill="#E1E1E1"/>
</svg>
