<svg width="103" height="61" viewBox="0 0 103 61" fill="none" xmlns="http://www.w3.org/2000/svg">
<g clip-path="url(#clip0_188_784)">
<path d="M24.3525 16.0529H43.7379V17.5688H26.1295V28.9785H42.6879V30.4944H26.1295V43.0211H43.9398V44.5371H24.3525V16.0529ZM45.4745 16.0529H47.5342L56.6615 28.5795L65.9907 16.0529L78.68 0.141113L57.8327 29.896L68.5754 44.5371H66.435L56.6615 31.2125L46.8477 44.5371H44.7476L55.5711 29.896L45.4745 16.0529ZM69.3428 17.5688V16.0529H91.434V17.5688H81.2567V44.5371H79.4797V17.5688H69.3428Z" fill="#E1E1E1"/>
<path d="M0.100586 16.053H2.32183L32.9514 61.1492L20.2937 44.5372L1.95835 18.2072L1.87758 44.5372H0.100586V16.053Z" fill="#E1E1E1"/>
<path d="M91.2545 42.5637C91.6219 42.5637 91.8898 42.2869 91.8898 41.9293C91.8898 41.5716 91.6219 41.2948 91.2545 41.2948C90.8914 41.2948 90.6191 41.5716 90.6191 41.9293C90.6191 42.2869 90.8914 42.5637 91.2545 42.5637ZM93.0006 40.8946C93.0006 41.9506 93.7742 42.6404 94.9023 42.6404C96.1038 42.6404 96.8299 41.9293 96.8299 40.6944V36.347H95.8618V40.6902C95.8618 41.3757 95.5117 41.7419 94.8936 41.7419C94.3404 41.7419 93.9644 41.4013 93.9514 40.8946H93.0006ZM98.0963 40.8392C98.1654 41.9378 99.0947 42.6404 100.478 42.6404C101.956 42.6404 102.881 41.9037 102.881 40.7285C102.881 39.8045 102.354 39.2936 101.074 38.9998L100.387 38.8337C99.5744 38.6463 99.246 38.3951 99.246 37.9566C99.246 37.403 99.756 37.0411 100.521 37.0411C101.247 37.0411 101.748 37.3945 101.839 37.9608H102.781C102.725 36.9261 101.8 36.198 100.534 36.198C99.1725 36.198 98.2648 36.9261 98.2648 38.0204C98.2648 38.9231 98.7792 39.4596 99.9072 39.7194L100.711 39.911C101.537 40.1026 101.9 40.3836 101.9 40.852C101.9 41.397 101.329 41.793 100.551 41.793C99.7171 41.793 99.1379 41.4226 99.0558 40.8392H98.0963Z" fill="#E1E1E1"/>
</g>
<defs>
<clipPath id="clip0_188_784">
<rect width="103" height="61" fill="white"/>
</clipPath>
</defs>
</svg>
