<svg width="80" height="80" viewBox="0 0 80 80" fill="none" xmlns="http://www.w3.org/2000/svg">
<path d="M15.3125 31.5625C14.375 31.5625 13.75 32.3125 13.75 33.25V42.0625L3.8125 32.0625C3.3125 31.5625 2.4375 31.4375 1.8125 31.6875C1.1875 31.9375 0.625 32.5625 0.625 33.25V46.1875C0.625 47.125 1.5625 47.875 2.5 47.875C3.4375 47.875 4.375 47.125 4.375 46.1875V37.375L14.4375 47.375C14.75 47.6875 15.1875 47.875 15.625 47.875C15.8125 47.875 15.875 47.8125 16.0625 47.75C16.6875 47.5 16.875 46.875 16.875 46.1875V33.3125C16.875 32.375 16.25 31.5625 15.3125 31.5625V31.5625ZM27.625 38.9375C26.75 38.9375 25.9375 39.8125 25.9375 40.6875C25.9375 41.5625 26.75 42.4375 27.625 42.4375L31.75 42.6875L30.8125 45H25.5L22.875 40.0625L25.5625 35H31.25L32.5625 37.5H36L33.75 32.5625L33.25 31.875H23.5L23.0625 32.625L19.375 39.0625L18.9375 39.875L19.375 40.6875L23 47.125L23.5 48.125H32.9375L33.375 47.0625L36.0625 41.4375L37.25 38.75H34.5L27.625 38.9375V38.9375ZM40.625 31.5625C39.75 31.5625 38.75 32.375 38.75 33.25V37.5H42.5V33.3125C42.5 32.375 41.5 31.5625 40.625 31.5625ZM59.625 31.75C59 31.5 58.125 31.625 57.6875 32.125L47.5 42.125V33.3125C47.5 32.375 46.875 31.625 45.9375 31.625C45 31.625 44.375 32.375 44.375 33.3125V46.25C44.375 46.9375 44.8125 47.5625 45.4375 47.8125C45.625 47.875 45.875 47.9375 46.0625 47.9375C46.5 47.9375 47.0625 47.75 47.375 47.4375L57.5 37.4375V46.25C57.5 47.1875 58.125 47.9375 59.0625 47.9375C60 47.9375 60.625 47.1875 60.625 46.25V33.3125C60.625 32.625 60.25 32 59.625 31.75V31.75ZM73.25 39.75L78.5 34.5C79.1875 33.8125 79.1875 32.75 78.5 32.125C77.8125 31.4375 76.75 31.4375 76.125 32.125L70.875 37.375L65.625 32.125C64.9375 31.4375 63.875 31.4375 63.25 32.125C62.5625 32.8125 62.5625 33.875 63.25 34.5L68.5 39.75L63.25 45C62.5625 45.6875 62.5625 46.75 63.25 47.375C63.5625 47.6875 64 47.875 64.4375 47.875C64.875 47.875 65.3125 47.6875 65.625 47.375L70.875 42.125L76.125 47.375C76.4375 47.6875 76.875 47.875 77.3125 47.875C77.75 47.875 78.1875 47.6875 78.5 47.375C79.1875 46.6875 79.1875 45.625 78.5 45L73.25 39.75V39.75ZM38.75 46.1875C38.75 47.0625 39.6875 47.875 40.625 47.875C41.5 47.875 42.5 47.0625 42.5 46.1875V38.75H38.75V46.1875Z" fill="#E1E1E1"/>
</svg>
