<svg width="80" height="80" viewBox="0 0 80 80" fill="none" xmlns="http://www.w3.org/2000/svg">
<path d="M69.6327 49.9566V53.8366H76.2394C78.3294 53.7666 79.9994 52.0566 79.9994 49.9566C79.9994 49.9132 79.9994 49.8732 79.996 49.8299V49.8366V48.3366C79.9994 48.2899 79.9994 48.2366 79.9994 48.1799C79.9994 46.0866 78.326 44.3832 76.2427 44.3366H76.2394H72.946V42.5366H79.4727V38.6632H73.2094C71.0994 38.7566 69.4227 40.4932 69.4227 42.6199V42.7199V42.7166V44.0666C69.4227 44.0999 69.4194 44.1432 69.4194 44.1832C69.4194 46.2932 71.0994 48.0099 73.196 48.0666H73.2027C77.736 48.0866 72.1127 48.0666 76.316 48.0666V49.9532L69.6294 49.9732L69.6327 49.9566ZM34.2227 49.0132C34.2227 49.0132 37.7594 48.6899 37.7594 43.8466C37.7694 43.7366 37.7727 43.6099 37.7727 43.4832C37.7727 40.9732 35.916 38.8999 33.5027 38.5566L33.476 38.5532H25.7627V53.8366H29.6427V50.1499L32.996 53.8366H38.736L34.2227 49.0166V49.0132ZM32.726 45.8832H29.6394V42.3899H32.7527C33.2827 42.6932 33.636 43.2532 33.636 43.8999C33.636 43.9799 33.6294 44.0599 33.6194 44.1366V44.1266C33.626 44.1899 33.6327 44.2632 33.6327 44.3399C33.6327 44.9999 33.2727 45.5732 32.7394 45.8799L32.7294 45.8832H32.726ZM47.3394 38.6599H43.406C41.3127 38.7499 39.6494 40.4699 39.6494 42.5799V42.6632V42.6599V53.8599H43.5894V51.1932H47.2894V53.8599H51.1027V42.6599C51.106 42.6066 51.106 42.5466 51.106 42.4866C51.106 40.3966 49.4294 38.6966 47.346 38.6632H47.3427L47.3394 38.6599ZM47.2894 46.8266H43.556V43.1132C43.556 43.1132 43.556 42.2799 44.7894 42.2799H46.1427C47.2327 42.2799 47.256 43.1132 47.256 43.1132V46.8232L47.2894 46.8266ZM52.8894 38.6599H56.9894V53.8366H52.8894V38.6599ZM62.756 49.9132V38.6599H58.6794V53.8366H68.2794V49.9132H62.756Z" fill="#E1E1E1"/>
<path d="M1.41309 53.8366H17.3798C17.3798 53.8366 14.3298 39.07 24.4331 33.0866C26.6364 31.95 33.6464 27.7066 45.1264 36.7066C45.4898 36.3833 45.8331 36.1266 45.8331 36.1266C45.8331 36.1266 35.3231 25.0033 23.6231 26.2466C17.7431 26.8033 10.5098 32.4833 6.26642 39.9866C3.89975 43.9733 2.19642 48.64 1.44309 53.62L1.41642 53.8333L1.41309 53.8366Z" fill="#E1E1E1"/>
<path d="M1.41309 53.8334H17.3798C17.3798 53.8334 14.3298 39.0668 24.4331 33.0834C26.6364 31.9468 33.6464 27.7034 45.1264 36.7034C45.4898 36.3801 45.8331 36.1234 45.8331 36.1234C45.8331 36.1234 35.3231 25.0034 23.6231 26.2468C17.7231 26.8034 10.4898 32.4834 6.24309 39.9868C3.87642 43.9701 2.17975 48.6401 1.43975 53.6234L1.41309 53.8334V53.8334ZM34.6831 27.4501L34.7631 26.0134C34.2031 25.7168 33.5531 25.4601 32.8698 25.2801L32.8031 25.2634L32.7231 26.6768C33.3898 26.9101 34.0364 27.1701 34.6831 27.4468V27.4501Z" fill="#E1E1E1"/>
<path d="M32.7533 31.9933L32.6733 33.3433C33.3967 33.37 34.0833 33.4667 34.7467 33.6233L34.6733 33.61L34.7533 32.2767C34.1767 32.1433 33.4933 32.0433 32.7933 31.9967L32.7533 31.9933ZM25.28 25.3067H25.4833L25.0667 24C24.3833 24 23.71 24.0467 23.05 24.1367L23.1267 24.1267L23.51 25.39C24.0067 25.3367 24.5833 25.3033 25.17 25.3033H25.2867H25.28V25.3067ZM26.25 33.1933L26.7133 34.6733C27.2 34.41 27.7833 34.1567 28.3833 33.95L28.47 33.9233L28.0233 32.51C27.3167 32.73 26.7267 32.9633 26.16 33.2333L26.2467 33.1967L26.25 33.1933ZM17.0667 27.5567L16.1567 26.0767C15.6533 26.3433 15.1267 26.6567 14.58 27L15.51 28.5C16.0433 28.1567 16.5467 27.8333 17.0633 27.5567H17.0667ZM21.2067 37.2033L22.1767 38.7467C22.5533 38.1767 22.9467 37.68 23.3767 37.2167L23.37 37.2233L22.46 35.7633C22.01 36.2 21.6 36.67 21.23 37.17L21.2067 37.2V37.2033ZM18.2733 44.1033L19.91 45.4733C20.0033 44.5267 20.1533 43.6733 20.36 42.8433L20.3333 42.9667L18.8767 41.7467C18.6667 42.3667 18.4567 43.16 18.2933 43.9667L18.27 44.1033H18.2733ZM9.43667 33.9233L8 32.5967C7.46667 33.13 6.97 33.6633 6.50333 34.1967L8.05667 35.61C8.52 34.9767 8.97 34.4267 9.44667 33.8967L9.43 33.9167L9.43667 33.9233ZM3.33333 43.5033L1.01 42.5967C0.626667 43.52 0.21 44.59 0 45.17L2.32333 46.07C2.58667 45.3433 3.01 44.2933 3.33333 43.5033ZM17.9833 49.55C18.0133 50.5333 18.1 51.4667 18.2433 52.38L18.2267 52.25L20.65 53.1733C20.47 52.34 20.2867 51.3933 20.1633 50.3867L17.9833 49.5533V49.55Z" fill="#E1E1E1"/>
</svg>
