<svg width="80" height="80" viewBox="0 0 80 80" fill="none" xmlns="http://www.w3.org/2000/svg">
<path d="M51.5742 34.1594C43.4992 39.3631 35.498 44.52 27.2855 49.8113C39.5842 51.4906 51.6636 53.1394 63.9823 54.8213C59.7861 47.8331 55.6973 41.025 51.5742 34.1594V34.1594ZM67.4548 11.1325C66.3705 12.76 65.2842 14.3869 64.2017 16.0156C60.483 21.61 56.7655 27.2038 53.0511 32.8C52.8442 33.1125 52.5761 33.36 52.8673 33.84C56.4573 39.7669 60.018 45.7125 63.5873 51.6513C64.1505 52.5894 64.7205 53.5238 65.4492 54.4238L67.6136 11.1794L67.4548 11.1325V11.1325ZM18.4561 29.6125C18.6242 29.7719 19.0436 29.8638 19.238 29.7681C22.6811 28.0756 26.1461 26.4213 29.5142 24.5894C30.6117 23.9931 31.4555 22.9225 32.4023 22.055C35.5355 19.1819 38.663 16.3025 41.7905 13.4225C41.9823 13.2456 42.208 13.075 42.323 12.8519C43.4461 10.6563 44.5492 8.45064 45.6923 6.18002C44.3292 5.66939 43.0373 5.16752 41.7298 4.71127C41.5523 4.64939 41.2736 4.77252 41.0798 4.88002C38.053 6.57127 34.9692 8.17189 32.038 10.0163C30.5711 10.9388 29.3761 12.2981 28.0773 13.4831C25.9855 15.3931 23.8948 17.3075 21.8323 19.2513C21.2848 19.7669 20.7861 20.3563 20.3605 20.9763C18.9492 23.03 17.5817 25.1131 16.1498 27.2563C16.9511 28.085 17.678 28.8763 18.4561 29.6125V29.6125ZM31.0392 26.8044C29.3273 34.04 27.6236 41.2344 25.8648 48.6656C34.1142 43.3506 42.173 38.1581 50.178 33C43.8073 30.9375 37.4567 28.8819 31.0392 26.8044V26.8044ZM44.6873 14.6538L51.6998 31.7113C56.2773 24.8356 60.7636 18.0956 65.3517 11.2019C58.3823 12.3663 51.5792 13.5025 44.6873 14.6538ZM31.3267 25.3244C37.603 27.3625 43.7548 29.3594 50.0842 31.4138C47.7336 25.6869 45.4636 20.1606 43.1461 14.5169L31.3267 25.3244V25.3244ZM18.7155 33.8319L12.1505 49.525C16.3573 49.4006 20.4361 49.28 24.6536 49.1556C22.6736 44.0456 20.7323 39.0356 18.7155 33.8319V33.8319ZM24.8023 45.5163L24.9573 45.4825C26.458 39.24 27.9811 33.0406 29.5142 26.555C26.0955 28.3313 22.8342 30.0263 19.483 31.7681C21.1923 36.2131 23.0161 40.9006 24.8023 45.5163V45.5163ZM62.8286 10.19C60.8317 9.66127 58.8367 9.13002 56.838 8.60502C53.9673 7.85064 51.0942 7.10439 48.2248 6.34252C47.8667 6.24752 47.6067 6.18564 47.3961 6.61752C46.3823 8.69502 45.3361 10.7575 44.3061 12.8269C44.2742 12.8913 44.2805 12.975 44.2561 13.1344C50.4736 12.1925 56.6498 11.2563 62.8248 10.3206L62.8286 10.19V10.19ZM51.2461 5.46377C56.608 6.94752 61.9698 8.43064 67.5192 9.96564L64.8305 2.30439C60.2742 3.31502 55.7723 4.31314 51.2705 5.31127L51.2461 5.46377V5.46377ZM56.1723 55.0625L42.8217 53.24C37.2761 52.4831 31.7405 51.65 26.1823 51.0094C24.1667 50.7775 22.0973 50.9913 20.0536 51.0256C18.3742 51.0544 16.6948 51.1181 15.0161 51.1713C14.843 51.1763 14.6705 51.2113 14.4986 51.3969C28.3798 52.6806 42.2623 53.9638 56.143 55.2481L56.1723 55.0625V55.0625ZM12.4242 44.735C14.2142 40.5844 15.9942 36.4306 17.7905 32.2838C17.9705 31.8669 17.9573 31.585 17.6055 31.2506C16.8536 30.535 16.1561 29.7644 15.3342 28.9106L12.0586 45.08L12.1792 45.1375C12.2623 45.0038 12.363 44.8788 12.4242 44.735ZM47.6817 4.36814C50.6986 3.58939 53.7592 2.98189 56.8017 2.30252C56.998 2.25814 57.1905 2.19314 57.3842 2.13752L57.3548 1.98877L44.2823 3.74689C45.5105 4.28377 46.4561 4.68439 47.6817 4.36814V4.36814ZM19.3598 68.3888V73.7306H16.4073V59.8075H20.4642C22.3555 59.8075 23.7555 60.1519 24.6636 60.8406C25.5717 61.5294 26.0261 62.5756 26.0261 63.9781C26.0261 64.7975 25.8005 65.5263 25.3492 66.1638C24.8986 66.8019 24.2611 67.3025 23.4348 67.6644L27.5305 73.73H24.2542L20.9311 68.3881H19.3598V68.3888ZM19.3598 65.9888H20.3123C21.2448 65.9888 21.9342 65.8325 22.3786 65.5219C22.8223 65.2106 23.0448 64.7219 23.0448 64.0556C23.0448 63.395 22.818 62.9256 22.3636 62.6463C21.9098 62.3669 21.2067 62.2269 20.2548 62.2269H19.3592V65.9888H19.3598ZM36.5961 73.7306L36.2061 72.3688H36.0536C35.7423 72.8644 35.3011 73.2463 34.7305 73.5163C34.1586 73.7863 33.5073 73.9206 32.778 73.9206C31.5267 73.9206 30.5842 73.5863 29.9492 72.9163C29.3142 72.2463 28.9973 71.2831 28.9973 70.0263V63.0838H31.9017V69.3025C31.9017 70.0706 32.0386 70.6469 32.3117 71.0313C32.5842 71.4156 33.0186 71.6069 33.6155 71.6069C34.4286 71.6069 35.0155 71.335 35.3773 70.7931C35.7392 70.25 35.9205 69.3506 35.9205 68.0938V63.0844H38.8248V73.7313H36.5961V73.7306ZM47.7955 62.8831C49.0523 62.8831 50.0367 63.3744 50.7486 64.355C51.4592 65.3356 51.8142 66.68 51.8142 68.3881C51.8142 70.1463 51.4473 71.5081 50.7148 72.4725C49.9811 73.4381 48.983 73.92 47.7192 73.92C46.4686 73.92 45.488 73.4656 44.7767 72.5575H44.5767L44.0917 73.7294H41.8723V58.9125H44.7767V62.36C44.7767 62.7981 44.738 63.4994 44.6617 64.465H44.7767C45.4555 63.4113 46.4623 62.8831 47.7955 62.8831V62.8831ZM46.8617 65.2075C46.1448 65.2075 45.6211 65.4281 45.2911 65.8694C44.9611 66.3113 44.7886 67.0394 44.7767 68.0556V68.3694C44.7767 69.5125 44.9461 70.3313 45.2855 70.8269C45.6255 71.3219 46.1636 71.5694 46.9005 71.5694C47.4967 71.5694 47.9711 71.2944 48.3236 70.7456C48.6761 70.1969 48.8523 69.3981 48.8523 68.3506C48.8523 67.3031 48.6742 66.5169 48.3186 65.9931C47.9636 65.4694 47.478 65.2075 46.8617 65.2075ZM52.4998 63.0838H55.6805L57.6898 69.0738C57.8611 69.5944 57.9792 70.21 58.0417 70.9213H58.0992C58.1686 70.2675 58.3048 69.6513 58.508 69.0738L60.4792 63.0838H63.593L59.0886 75.0925C58.6761 76.2031 58.0873 77.035 57.323 77.5875C56.5573 78.14 55.6642 78.4156 54.6417 78.4156C54.1398 78.4156 53.648 78.3619 53.1661 78.2538V75.9494C53.5155 76.0313 53.8961 76.0725 54.3086 76.0725C54.8223 76.0725 55.2717 75.9156 55.6561 75.6013C56.0405 75.2875 56.3405 74.8131 56.5555 74.1781L56.7267 73.6538L52.4998 63.0838Z" fill="#E1E1E1"/>
</svg>
