<svg width="78" height="74" viewBox="0 0 78 74" fill="none" xmlns="http://www.w3.org/2000/svg">
<path d="M0.000471987 71.188L1.38368 68.3208C2.89818 69.3155 4.87358 69.8419 6.84946 69.8419C8.29831 69.8419 9.22014 69.3448 9.22014 68.5842C9.18708 66.4776 0.494441 68.116 0.428326 62.8197C0.395269 60.128 3.09557 58.0507 6.91558 58.0507C9.18708 58.0507 11.4595 58.5483 13.0727 59.6895L11.7802 62.6179C10.2959 61.7714 8.46266 61.1813 6.7177 61.1813C5.53237 61.1813 4.74183 61.6785 4.74183 62.3226C4.77488 64.3999 13.5341 63.2586 13.6328 68.3208C13.6328 71.0711 10.9981 73.0022 7.24426 73.0022C4.47878 73.0022 1.94329 72.4172 0 71.188M55.0776 67.2826C54.7285 67.8327 54.2206 68.2906 53.6061 68.6093C52.9916 68.928 52.2925 69.0959 51.5806 69.096C49.362 69.096 47.5637 67.4978 47.5637 65.5265C47.5637 63.5551 49.362 61.957 51.5806 61.957C52.2925 61.957 52.9916 62.125 53.6061 62.4437C54.2206 62.7623 54.7285 63.2202 55.0776 63.7704L58.9231 61.8774C57.4828 59.5945 54.7353 58.0507 51.5806 58.0507C46.9342 58.0507 43.1676 61.3974 43.1676 65.5265C43.1676 69.6551 46.9342 73.0022 51.5806 73.0022C54.7353 73.0022 57.4828 71.4585 58.9231 69.1756L55.0776 67.2826ZM16.1282 72.7095H20.9356V51.8276H16.1286L16.1282 72.7095ZM61.3509 51.8276V72.7095H66.1584V66.4533L71.8551 72.7095H78L70.7557 65.2773L77.473 58.3422H71.5916L66.1584 64.108V51.8276H61.3509ZM35.7467 58.3431V60.0405C34.9566 58.8699 33.0138 58.0507 30.9723 58.0507C26.7575 58.0507 23.4319 61.3572 23.4319 65.5118C23.4319 69.6664 26.7575 73.0022 30.9723 73.0022C33.0138 73.0022 34.9566 72.183 35.7467 71.0125V72.7095H40.5542V58.3431H35.7467ZM35.7467 67.3115C35.0553 68.3354 33.6065 69.0956 31.9933 69.0956C29.7742 69.0956 27.9759 67.4978 27.9759 65.5265C27.9759 63.5551 29.7742 61.957 31.9933 61.957C33.6065 61.957 35.0553 62.7468 35.7467 63.7997V67.3115Z" fill="#E1E1E1"/>
<path d="M31.813 0C28.7826 0 26.3264 2.18322 26.3264 4.8756C26.3256 5.51523 26.467 6.14872 26.7423 6.73991C27.0176 7.3311 27.4216 7.8684 27.9311 8.32114C28.4406 8.77388 29.0456 9.1332 29.7117 9.37856C30.3777 9.62393 31.0918 9.75055 31.813 9.7512H37.3006V4.8756C37.3018 3.58373 36.7244 2.34433 35.6953 1.43C34.6662 0.515675 33.2697 0.00129574 31.813 0M31.813 13.0016H17.181C14.1506 13.0016 11.6943 15.1848 11.6943 17.878C11.6943 20.5704 14.1506 22.7536 17.181 22.7536H31.8139C34.8434 22.7536 37.3006 20.5704 37.3006 17.878C37.3006 15.1848 34.8434 13.0016 31.813 13.0016" fill="#E1E1E1"/>
<path d="M66.5643 17.878C66.5643 15.1848 64.1071 13.0016 61.0767 13.0016C58.0463 13.0016 55.59 15.1848 55.59 17.878V22.7536H61.0767C62.5334 22.7523 63.9299 22.2379 64.959 21.3236C65.988 20.4093 66.5655 19.1699 66.5643 17.878M51.9323 17.878V4.8756C51.9335 3.58373 51.356 2.34433 50.3269 1.43C49.2978 0.515675 47.9014 0.00129574 46.4447 0C43.4143 0 40.958 2.18322 40.958 4.8756V17.8772C40.958 20.5712 43.4143 22.7544 46.4447 22.7544C47.9014 22.7531 49.2978 22.2387 50.3269 21.3244C51.356 20.4101 51.9335 19.1707 51.9323 17.8788" fill="#E1E1E1"/>
<path d="M46.4447 48.7578C47.9014 48.7565 49.2978 48.2421 50.3269 47.3277C51.356 46.4134 51.9335 45.174 51.9323 43.8822C51.9335 42.5903 51.356 41.3509 50.3269 40.4366C49.2978 39.5222 47.9014 39.0079 46.4447 39.0066H40.958V43.8822C40.958 46.5745 43.4143 48.7578 46.4447 48.7578ZM46.4447 35.7562H61.0776C64.1071 35.7562 66.5643 33.5729 66.5643 30.8797C66.5655 29.5879 65.9881 28.3485 64.959 27.4342C63.9299 26.5198 62.5334 26.0054 61.0767 26.0042H46.4447C43.4143 26.0042 40.958 28.1874 40.958 30.8797C40.9573 31.5194 41.0986 32.1529 41.374 32.7441C41.6493 33.3352 42.0532 33.8726 42.5627 34.3253C43.0722 34.778 43.6773 35.1373 44.3433 35.3827C45.0094 35.6281 45.7234 35.7547 46.4447 35.7553" fill="#E1E1E1"/>
<path d="M11.6943 30.8797C11.6936 31.5194 11.835 32.1529 12.1103 32.7441C12.3856 33.3352 12.7896 33.8726 13.2991 34.3253C13.8085 34.778 14.4136 35.1373 15.0797 35.3827C15.7457 35.6281 16.4598 35.7547 17.181 35.7553C18.6377 35.7541 20.0342 35.2397 21.0633 34.3253C22.0924 33.411 22.6698 32.1716 22.6686 30.8797V26.0042H17.181C14.1506 26.0042 11.6943 28.1874 11.6943 30.8797M26.3264 30.8797V43.8813C26.3264 46.5745 28.7826 48.7578 31.813 48.7578C33.2697 48.7565 34.6662 48.2421 35.6953 47.3277C36.7244 46.4134 37.3018 45.174 37.3006 43.8822V30.8797C37.3013 30.24 37.16 29.6065 36.8846 29.0152C36.6092 28.424 36.2051 27.8867 35.6956 27.4339C35.186 26.9812 34.5808 26.6219 33.9146 26.3765C33.2485 26.1312 32.5343 26.0047 31.813 26.0042C28.7826 26.0042 26.3264 28.1874 26.3264 30.8797Z" fill="#E1E1E1"/>
</svg>
