<svg width="80" height="80" viewBox="0 0 80 80" fill="none" xmlns="http://www.w3.org/2000/svg">
<path d="M67.3503 54.6401C59.1203 65.6034 41.547 61.9034 30.277 62.4334C30.277 62.4334 28.2803 62.5467 26.2737 62.8767C26.2737 62.8767 27.0337 62.5534 28.0037 62.2167C35.917 59.4801 39.657 58.9301 44.467 56.4601C53.5003 51.8334 62.4937 41.7501 64.3237 31.2767C60.8837 41.3501 50.4237 50.0201 40.9003 53.5401C34.3837 55.9467 22.5937 58.2867 22.5903 58.2867C22.4302 58.2047 22.2712 58.1203 22.1137 58.0334C14.097 54.1334 13.8637 36.7667 28.427 31.1701C34.8137 28.7167 40.917 30.0634 47.8203 28.4201C55.1803 26.6701 63.707 21.1534 67.1703 13.9401C71.0537 25.4667 75.7203 43.4934 67.3503 54.6401V54.6401ZM67.4903 10.3734C66.5593 12.6059 65.3677 14.7206 63.9403 16.6734C60.8376 13.4756 57.1242 10.9335 53.0204 9.19792C48.9166 7.46239 44.506 6.56876 40.0503 6.57007C21.6403 6.57007 6.667 21.5434 6.667 39.9501C6.66485 44.5415 7.61288 49.0837 9.45146 53.2909C11.29 57.4981 13.9794 61.2794 17.3503 64.3967L18.0837 65.0434C17.5491 64.508 17.2491 63.7822 17.2496 63.0257C17.2501 62.2691 17.551 61.5438 18.0862 61.009C18.6213 60.4743 19.347 60.174 20.1035 60.1741C20.8601 60.1743 21.5856 60.4749 22.1205 61.0099C22.6555 61.5448 22.9561 62.2703 22.9563 63.0269C22.9564 63.7834 22.6561 64.5091 22.1214 65.0442C21.5866 65.5794 20.8613 65.8803 20.1047 65.8808C19.3482 65.8813 18.6224 65.5813 18.087 65.0467L18.5837 65.4867C24.585 70.5605 32.1916 73.341 40.0503 73.3334C57.6437 73.3334 72.0937 59.6401 73.3303 42.3601C74.2437 33.8967 71.7437 23.1501 67.4903 10.3734" fill="#E1E1E1"/>
</svg>
