<svg width="80" height="80" viewBox="0 0 80 80" fill="none" xmlns="http://www.w3.org/2000/svg">
<path d="M62.1492 28.6914C61.1536 33.2739 57.8011 48.5264 57.8011 48.5264H64.5298C64.933 46.6464 65.2461 44.9158 65.7048 43.0045C66.5155 39.617 67.4248 38.2758 69.8298 38.2758C70.8905 38.2758 71.988 38.6364 71.988 40.0851C71.988 40.7439 70.4755 47.2133 70.2098 48.527H76.9061C76.9061 48.527 78.9823 38.4545 78.9998 38.3395C79.0698 38.0008 79.2217 37.0064 79.2217 37.0064C79.2217 34.6001 76.0905 33.4658 74.4611 33.4189C73.2823 33.3858 74.1705 33.3989 72.9692 33.4189C71.0411 33.452 68.4786 34.5233 67.3523 35.6726L67.2255 35.7676L67.2892 35.6089L68.8123 28.8176C68.8059 28.7693 68.7832 28.7245 68.748 28.6908H62.148L62.1492 28.6914ZM30.2867 33.2289C29.6267 33.2189 28.5398 33.2195 26.7955 33.2614C23.308 33.3445 18.0998 34.4189 18.0998 39.4176C18.0998 42.2451 20.7248 42.4914 23.0498 42.7189C24.8686 42.8983 26.6698 43.1108 28.4448 43.2901C28.9561 43.3376 29.4605 43.4526 29.4605 44.0201C29.4605 44.9826 28.6667 45.287 27.5561 45.3845C26.4461 45.4826 26.1917 45.3845 26.1917 45.3845C25.4917 45.3845 24.2942 44.9614 24.4461 43.9564H16.5442V45.1314C16.5473 48.9126 22.6505 48.927 23.7805 49.0658H25.748L28.763 48.9708C32.788 48.7051 37.1442 47.4989 37.3317 42.687C37.4617 39.367 33.2192 39.462 31.3655 39.2589H30.858C30.763 39.2589 27.8811 38.9664 26.4467 38.8151C26.228 38.7901 25.2405 38.6445 25.2405 38.0526C25.2405 36.8776 27.4011 36.9101 27.8748 36.9101C28.6361 36.9101 30.2836 36.8776 30.223 38.1789H37.6817C37.6967 37.902 37.8086 37.6526 37.8086 37.3539C37.8086 34.0076 33.5148 33.3726 31.1761 33.2601C31.1761 33.2601 30.9473 33.2395 30.2873 33.2289H30.2867ZM50.343 33.2289C50.048 33.2183 49.6442 33.2264 47.8992 33.2614C44.4055 33.3314 39.1723 34.4501 39.1723 39.4501C39.1723 42.277 41.7986 42.5233 44.1223 42.7501C45.9411 42.9301 47.7423 43.1426 49.518 43.322C50.0292 43.3695 50.5336 43.4845 50.5336 44.052C50.5336 45.0145 49.5436 45.3583 48.6292 45.4164C47.7142 45.4745 47.2648 45.4164 47.2648 45.4164C46.5636 45.4164 45.3673 45.0245 45.5192 44.0201H37.6173V45.1951C37.6111 48.7701 43.6986 49.0045 44.853 49.0664L46.8205 49.1301L49.8355 49.0351C53.8605 48.7708 58.2011 47.562 58.4042 42.7514C58.538 39.5789 54.4417 39.622 52.5011 39.3558L51.9305 39.2914C51.8355 39.2914 48.9536 39.0301 47.5192 38.8789C47.3005 38.8551 46.3442 38.677 46.3442 38.0851C46.3442 36.9114 48.4736 36.9433 48.9467 36.9433C49.7092 36.9433 51.3561 36.9108 51.2955 38.212H58.7536C58.7686 37.9351 58.8805 37.6858 58.8805 37.387C58.8805 34.0401 54.5655 33.3933 52.248 33.3258C50.8292 33.282 50.6392 33.2401 50.3436 33.2289H50.343ZM12.3611 28.2789C12.3611 27.0551 11.4942 26.1208 10.203 26.1208C8.99172 26.1208 8.01297 27.0551 8.01297 28.2789C8.01297 29.4258 8.94422 30.4689 10.1711 30.4689C11.3311 30.4689 12.3611 29.5551 12.3611 28.2789V28.2789ZM18.2961 23.1689C18.2961 22.2376 17.6867 21.0439 16.3917 21.0439C15.2136 21.0439 14.6142 22.0783 14.6142 23.0108C14.6142 23.9126 15.2517 25.232 16.5186 25.232C17.6961 25.232 18.2955 24.072 18.2955 23.1695L18.2961 23.1689ZM12.9923 57.7295C11.9123 57.7295 10.4873 59.1408 10.4873 60.2045C10.4873 60.7458 10.7398 61.0295 11.3286 61.0295C12.0986 61.0295 13.108 60.3776 13.5867 59.4108C13.6805 59.2214 13.7492 58.9008 13.7492 58.8401V58.3008C13.7492 57.8508 13.3073 57.7301 12.9911 57.7301L12.9923 57.7295ZM8.39422 55.0958C7.20047 55.0958 5.53797 56.3408 5.53797 57.7301C5.53797 58.4176 5.96547 58.7458 6.58547 58.7458C7.73297 58.7458 9.53672 57.5426 9.53672 56.0801C9.53672 55.3589 9.03234 55.0958 8.39422 55.0958ZM5.09422 38.0533C6.22234 38.0533 7.79109 37.2739 7.79109 35.6733C7.79109 34.4645 6.79484 33.7058 5.69734 33.7058C4.50359 33.7058 2.96734 34.5339 2.96734 36.0851C2.96734 37.2789 3.93172 38.0526 5.09359 38.0526L5.09422 38.0533ZM6.45859 51.097C6.45859 50.1645 5.76859 49.7958 4.99859 49.7958C3.87359 49.7958 1.92047 50.877 1.92047 52.4301C1.92047 53.3064 2.51734 53.6989 3.34859 53.6989C4.41297 53.6989 6.45859 52.7345 6.45859 51.097V51.097ZM5.69672 43.8608C5.69672 42.7501 4.79047 42.242 3.82422 42.242C3.76297 42.242 3.71797 42.2233 3.47422 42.242C2.07922 42.3589 0.777344 43.5608 0.777344 44.7808C0.777344 45.9214 1.81484 46.3995 2.71297 46.3995C3.87547 46.3995 5.69672 45.5076 5.69672 43.8601V43.8608ZM18.0423 58.142C17.0298 58.142 15.8523 59.4945 15.8523 60.427C15.8523 60.5645 15.8548 60.8333 16.1061 60.9983C16.3686 61.1708 16.8386 61.1858 17.4061 60.8076C18.1686 60.2995 18.6761 59.4001 18.6761 58.8076C18.6761 58.4826 18.468 58.142 18.0417 58.142H18.0423ZM32.4192 21.7726C31.5692 21.7726 31.2755 23.0914 31.2755 23.5183C31.2755 23.9408 31.4223 24.882 32.1648 24.882C33.0361 24.882 33.3073 23.5633 33.3073 23.1364C33.3073 22.7776 33.1155 21.772 32.4198 21.7714L32.4192 21.7726ZM35.1792 25.2639C34.3942 25.2639 34.1005 26.5533 34.1005 26.9451C34.1005 27.2739 34.2255 28.0564 34.8305 28.0564C35.5942 28.0564 35.878 26.7989 35.878 26.4064C35.878 26.1458 35.7623 25.2639 35.1792 25.2639V25.2639ZM28.2611 19.3926C27.2736 19.3926 26.9598 20.6283 26.9598 21.2014C26.9598 21.5789 27.1923 22.9239 28.1348 22.9151C29.0761 22.9058 29.4348 21.682 29.4348 21.0745C29.4348 20.602 29.2086 19.392 28.2611 19.392V19.3926ZM26.928 54.2389C26.0323 54.2389 25.4048 55.6076 25.4048 56.1433C25.4048 56.4226 25.4761 56.7139 25.8811 56.7139C26.7667 56.7139 27.4036 55.3683 27.4036 54.8095C27.4036 54.5483 27.308 54.2383 26.9273 54.2383L26.928 54.2389ZM22.7392 18.8851C21.6598 18.8851 21.2473 20.1664 21.2473 20.8526C21.2473 21.5733 21.7786 22.8201 22.8348 22.8201C23.9048 22.8201 24.3136 21.5408 24.2942 20.8845C24.2692 20.0445 23.9167 18.8845 22.7392 18.8845V18.8851ZM22.7392 56.8095C21.758 56.8095 20.9305 58.2158 20.9305 58.9358C20.9305 59.2983 21.0955 59.507 21.4698 59.507C22.3573 59.507 23.2792 58.1508 23.2792 57.4445C23.2792 57.1345 23.2155 56.8101 22.7398 56.8101L22.7392 56.8095Z" fill="#E1E1E1"/>
</svg>
