<svg width="80" height="80" viewBox="0 0 80 80" fill="none" xmlns="http://www.w3.org/2000/svg">
<path d="M61.667 31.7C59.1672 30.8391 56.9606 29.291 55.3003 27.2334C53.4705 24.9408 51.1405 23.0971 48.4887 21.8434C45.8368 20.5897 42.9333 19.9592 40.0003 20C36.0549 19.7206 32.1489 20.9375 29.0603 23.4084C25.9718 25.8793 23.9271 29.4228 23.3337 33.3334C24.5026 31.3775 26.2618 29.8429 28.3583 28.9504C30.4548 28.0579 32.7803 27.8535 35.0003 28.3667C37.496 29.2527 39.6989 30.8098 41.367 32.8667C43.2069 35.1409 45.5413 36.9655 48.1925 38.2017C50.8438 39.4378 53.7422 40.0528 56.667 40C60.6124 40.2794 64.5184 39.0625 67.607 36.5917C70.6956 34.1208 72.7402 30.5772 73.3336 26.6667C72.186 28.6459 70.4323 30.2037 68.3315 31.11C66.2308 32.0164 63.8943 32.2232 61.667 31.7ZM18.3337 48.3C20.8335 49.161 23.04 50.7091 24.7003 52.7667C26.5302 55.0592 28.8601 56.9029 31.512 58.1566C34.1638 59.4103 37.0673 60.0409 40.0003 60C43.9458 60.2794 47.8517 59.0625 50.9403 56.5917C54.0289 54.1208 56.0735 50.5772 56.667 46.6667C55.4981 48.6225 53.7388 50.1571 51.6423 51.0496C49.5459 51.9421 47.2203 52.1465 45.0003 51.6334C42.5047 50.7473 40.3017 49.1903 38.6337 47.1334C36.7888 44.8647 34.4535 43.0441 31.8033 41.8086C29.1532 40.573 26.2573 39.9546 23.3337 40C19.3882 39.7206 15.4823 40.9375 12.3937 43.4084C9.30508 45.8793 7.26047 49.4228 6.66699 53.3334C7.81468 51.3541 9.56835 49.7963 11.6691 48.89C13.7699 47.9837 16.1064 47.7768 18.3337 48.3Z" fill="#E1E1E1"/>
</svg>
