<svg width="80" height="80" viewBox="0 0 80 80" fill="none" xmlns="http://www.w3.org/2000/svg">
<path d="M1.25 39.9438V79.0063H79.375V0.881348H1.25V39.9438ZM64.2063 36.8188C66.0774 37.2531 67.7781 38.2317 69.0938 39.6313C69.818 40.3854 70.4477 41.2249 70.9688 42.1313C70.9688 42.2313 67.5938 44.5126 65.5375 45.7876C65.4625 45.8376 65.1625 45.5126 64.8313 45.0188C64.4559 44.3711 63.9225 43.8291 63.281 43.4433C62.6394 43.0575 61.9106 42.8405 61.1625 42.8126C58.7938 42.6501 57.2688 43.8938 57.2813 45.9376C57.2617 46.4464 57.3782 46.9513 57.6188 47.4001C58.1375 48.4813 59.1063 49.1251 62.1438 50.4376C67.7375 52.8438 70.1312 54.4313 71.6187 56.6876C73.2812 59.1876 73.65 63.2251 72.525 66.2126C71.275 69.4626 68.2125 71.6688 63.8812 72.4001C61.903 72.6267 59.9043 72.6057 57.9313 72.3376C54.9201 71.8491 52.1424 70.4154 50 68.2438C49.2813 67.4501 47.8812 65.3813 47.9688 65.2313C48.1969 65.062 48.4371 64.9095 48.6875 64.7751L51.5625 63.1251L53.8062 61.8251L54.275 62.5188C55.0661 63.6505 56.0728 64.6147 57.2375 65.3563C59.7375 66.6688 63.15 66.4876 64.8375 64.9688C65.4041 64.4123 65.7575 63.6747 65.8363 62.8844C65.9151 62.0942 65.7143 61.3013 65.2688 60.6438C64.6438 59.7751 63.3937 59.0438 59.9 57.5188C55.8687 55.7813 54.1312 54.7063 52.5437 52.9938C51.5527 51.8638 50.821 50.5305 50.4 49.0876C50.086 47.4391 50.0395 45.7508 50.2625 44.0876C51.0937 40.1938 54.0125 37.4751 58.275 36.6688C60.249 36.4246 62.2486 36.4794 64.2063 36.8313V36.8188ZM45.8687 40.0938V43.2938H35.725V72.1876H28.5313V43.2876H18.3625V40.1626C18.3352 39.0868 18.3644 38.0103 18.45 36.9376C18.4875 36.8876 24.7 36.8626 32.2 36.8751H45.8313L45.8687 40.0938Z" fill="#E1E1E1"/>
</svg>
