<svg width="80" height="80" viewBox="0 0 80 80" fill="none" xmlns="http://www.w3.org/2000/svg">
<path d="M68.787 16.8574L53.787 7.8574C53.7195 7.8174 53.6445 7.7974 53.572 7.7649C52.5795 7.1699 51.297 7.2774 50.4745 8.1574L29.427 30.7099L17.827 20.0749C17.4533 19.7339 16.9851 19.5139 16.4841 19.4438C15.983 19.3738 15.4725 19.4569 15.0195 19.6824L8.99204 22.6949C8.64492 22.8692 8.34315 23.1219 8.11061 23.4331C7.87807 23.7442 7.72114 24.1052 7.65226 24.4874C7.58337 24.8697 7.60442 25.2628 7.71372 25.6355C7.82303 26.0082 8.0176 26.3504 8.28204 26.6349L20.7545 39.9999L8.28204 53.3649C8.01661 53.649 7.82116 53.9911 7.71125 54.364C7.60134 54.7369 7.58002 55.1303 7.64896 55.513C7.71791 55.8956 7.87523 56.2568 8.1084 56.5679C8.34157 56.879 8.64414 57.1314 8.99204 57.3049L15.0195 60.3199C15.4544 60.5383 15.9437 60.6246 16.427 60.5682C16.9104 60.5117 17.3666 60.3151 17.7395 60.0024L29.937 49.8374L50.4745 71.8424C50.7082 72.0934 50.991 72.2935 51.3055 72.4303C51.6199 72.5671 51.9591 72.6376 52.302 72.6374C52.7659 72.6223 53.2162 72.4777 53.602 72.2199C53.662 72.1899 53.727 72.1774 53.7845 72.1424L68.7845 63.1424C69.1548 62.9205 69.4613 62.6066 69.6742 62.2312C69.8871 61.8557 69.9992 61.4315 69.9995 60.9999V18.9999C69.9995 18.5685 69.8877 18.1445 69.6753 17.7691C69.4628 17.3936 69.1568 17.0796 68.787 16.8574ZM15.792 55.1149L14.2195 54.3299L24.172 43.6649L26.517 46.1774L15.792 55.1149ZM49.9995 64.0049L14.2195 25.6699L15.717 24.9224L49.9995 56.3499V64.0049ZM49.9995 49.5649L40.602 40.9499L49.9995 33.1199V49.5649ZM49.9995 26.6099L36.882 37.5399L33.1145 34.0849L49.9995 15.9949V26.6099ZM64.9995 59.5824L54.9995 65.5824V14.4149L64.9995 20.4149V59.5824Z" fill="#E1E1E1"/>
</svg>
