<svg width="46" height="46" viewBox="0 0 46 46" fill="none" xmlns="http://www.w3.org/2000/svg">
<path d="M23.0002 21.2894L41.3714 9.4875C40.6328 8.93351 39.7359 8.63118 38.8127 8.625H7.18766C6.2644 8.63118 5.36751 8.93351 4.62891 9.4875L23.0002 21.2894Z" fill="#E1E1E1"/>
<path d="M23.7763 24.2075L23.5319 24.3225H23.4169C23.2845 24.3816 23.144 24.4204 23 24.4375C22.8807 24.4525 22.7599 24.4525 22.6406 24.4375H22.5256L22.2812 24.3225L3.01875 11.8737C2.92672 12.221 2.87843 12.5783 2.875 12.9375V33.0625C2.875 34.2062 3.32935 35.3031 4.1381 36.1119C4.94685 36.9206 6.04375 37.375 7.1875 37.375H38.8125C39.9562 37.375 41.0531 36.9206 41.8619 36.1119C42.6707 35.3031 43.125 34.2062 43.125 33.0625V12.9375C43.1216 12.5783 43.0733 12.221 42.9813 11.8737L23.7763 24.2075Z" fill="#E1E1E1"/>
</svg>
