<svg width="207" height="207" viewBox="0 0 207 207" fill="none" xmlns="http://www.w3.org/2000/svg">
<path d="M71.6216 73.278L77.4177 89.838C77.8317 91.08 79.4876 91.08 79.9016 89.838L85.6977 73.278C92.3217 70.38 97.2896 63.756 97.2896 56.304C97.2896 45.954 89.0097 37.674 78.6597 37.674C68.3096 37.674 60.0296 45.954 60.0296 56.304C60.0296 63.756 64.9976 70.38 71.6216 73.278ZM78.6597 44.712C85.2837 44.712 90.2516 50.094 90.2516 56.304C90.2516 62.514 84.8697 67.896 78.6597 67.896C72.4496 67.896 67.0677 62.514 67.0677 56.304C67.0677 50.094 72.4496 44.712 78.6597 44.712ZM55.8896 98.946C56.3036 99.36 56.3036 99.774 56.7176 100.188L57.5456 99.36H56.7176L57.1316 98.946H55.8896Z" fill="#E1E1E1"/>
<path d="M202.86 162.288L176.364 86.112C175.122 81.972 170.982 79.902 166.842 80.316L151.11 82.8C151.524 84.87 151.938 86.526 151.938 88.596C151.938 96.048 147.798 103.086 141.174 106.398L139.932 109.71C139.932 109.71 139.932 110.124 141.174 110.124C141.588 110.124 142.002 110.538 142.002 110.538L141.174 110.952V111.366C141.174 111.366 141.588 111.366 142.002 111.366C142.416 111.78 142.83 112.194 143.244 112.608L142.83 113.022L143.658 113.85L144.072 114.678L144.9 115.092L145.314 115.506L144.9 115.92L145.314 116.748L144.486 117.162L144.9 117.576L145.314 118.818L144.9 119.232L145.314 119.646L144.9 120.474L146.142 121.716L146.97 122.544V124.2C146.97 124.2 146.142 125.856 146.142 126.27L144.9 126.684C144.9 126.684 144.9 127.098 144.9 127.512L145.728 128.34L144.9 128.754C144.9 128.754 146.142 128.754 146.142 129.168L146.97 130.824C146.97 130.824 146.97 131.238 146.556 131.652L147.384 132.066C147.384 132.066 147.798 133.308 148.212 133.722C148.212 133.722 149.04 134.136 148.626 134.964C148.626 134.964 148.212 136.62 148.626 137.034C148.626 137.034 149.04 137.448 149.04 137.862C149.04 137.862 147.798 139.518 147.384 139.932C147.384 139.932 146.142 140.346 145.728 140.346C145.728 140.346 144.072 141.174 144.072 140.76L143.244 140.346L142.416 140.76C142.416 140.76 141.174 142.416 140.76 142.416L140.346 142.83C140.346 142.83 139.104 143.244 139.104 143.658L139.518 144.9L138.69 145.314H137.862L137.448 145.728L136.62 144.9L135.792 144.486L135.378 144.072H134.55H134.136H133.308C133.308 144.486 132.894 144.9 132.48 144.9L132.066 145.314H131.238L129.996 145.728L129.168 146.142H128.754L127.926 146.556H127.512L126.684 146.97L125.856 146.556L125.442 145.728L125.028 144.9L124.2 145.728V146.142V146.97L124.614 147.384V147.798L123.786 148.212H123.372H122.544C122.544 148.212 122.13 147.798 121.716 147.798C121.302 147.384 120.888 146.97 120.888 146.97L120.474 147.384L120.06 147.798C120.06 147.798 119.646 147.798 118.818 146.556L118.404 146.97C118.404 146.97 118.404 147.384 118.404 147.798H117.99V148.212H117.576L116.748 148.626H115.92L115.506 149.454C115.506 149.454 115.506 150.282 115.92 150.696C115.92 150.696 115.92 151.524 115.092 151.524C115.092 151.524 114.264 151.524 114.264 151.938C114.264 151.938 113.85 152.352 113.436 151.938C113.436 151.938 113.022 152.352 113.022 152.766V153.18H112.608L113.022 155.25C113.022 155.25 111.366 154.008 110.952 152.766C110.952 152.766 110.952 151.938 110.952 151.524C110.952 151.11 111.366 150.696 111.366 150.696V149.868V149.454H111.78L112.194 148.626L112.608 147.798V146.97H112.194L113.436 146.556H114.678L114.264 146.142L114.678 145.314L115.506 144.486L115.092 144.072L115.506 143.244C115.92 142.83 116.334 142.002 116.748 142.002V141.174L117.162 140.76C117.162 140.76 118.818 139.518 119.232 139.518C120.888 137.862 120.06 137.862 120.474 137.034H120.888L121.302 136.206C121.302 136.206 122.13 135.378 122.544 135.378C122.958 134.964 124.2 133.308 124.614 132.894L125.442 132.48C125.856 132.066 126.684 130.41 127.098 129.996V129.168V128.34L126.684 127.098V125.856L125.028 124.2L125.442 123.372L125.856 122.13L126.27 120.888L126.684 119.646L122.13 106.812C115.506 103.5 111.366 96.462 111.366 89.01C111.366 86.526 111.78 84.042 112.608 81.558L103.5 83.214L87.7682 80.73L84.0422 91.494C83.6282 93.15 82.3862 94.392 80.7302 94.806H81.5582L84.0422 93.978L84.4562 94.806L85.6982 95.22L86.5262 94.806L87.3542 93.978L87.7682 94.806L88.5962 94.392L89.0102 93.564L90.2522 92.736C90.2522 93.15 90.6662 93.978 90.6662 94.392L91.4942 94.806L92.3222 93.978L91.4942 93.15H92.3222L93.5642 92.322V93.15L94.8062 92.736H96.0482L96.8762 91.908L97.7042 92.736L98.5322 93.564L98.9462 93.978L99.3602 94.806L100.602 95.634L99.7742 96.462H98.9462L98.1182 95.634L98.5322 97.29H97.7042V98.118L96.0482 97.704L95.2202 96.876L93.9782 96.462L96.0482 95.634L97.2902 94.392L96.0482 93.564C96.0482 93.564 94.8062 93.564 94.3922 93.564C93.9782 93.564 93.5642 94.392 93.5642 94.392L92.7362 95.634L91.0802 96.048L89.4242 96.876L87.3542 97.704L83.6282 99.36H84.4562V100.188H85.6982L86.9402 101.016L87.7682 101.43L86.9402 102.672L87.3542 103.5C87.7682 103.086 89.0102 101.43 89.0102 101.016L91.0802 100.188L90.6662 99.36L91.9082 98.532V98.118L92.3222 97.29H93.5642L93.9782 97.704L94.8062 98.532V99.774H95.2202L96.4622 98.532L96.8762 99.774L96.4622 101.016L97.2902 101.844L98.1182 102.672V103.914L97.7042 104.742H98.5322L98.1182 105.984H96.8762L95.6342 105.57L96.4622 104.742L97.2902 103.5L95.2202 104.328L93.1502 103.914L91.4942 104.742L93.1502 104.328C93.1502 104.742 93.5642 105.984 93.5642 106.398H94.8062L93.5642 107.226L92.3222 107.64L93.1502 106.398C93.1502 106.398 91.9082 106.812 91.4942 106.812C91.0802 106.812 90.2522 107.64 90.2522 107.64L89.8382 108.882C89.8382 108.882 88.5962 108.882 88.1822 109.296L87.3542 109.71C86.9402 109.71 86.1122 110.124 86.1122 110.124V111.78C85.6982 112.194 84.8702 113.436 83.2142 114.264C82.8002 114.264 82.8002 115.506 82.8002 115.506L82.3862 117.99L81.9722 117.576L81.1442 115.92L79.9022 115.506H78.6602L77.4182 116.334L76.5902 115.92H75.7622H74.9342L73.6922 117.576L72.8642 119.232C72.8642 119.232 73.2782 121.302 73.2782 121.716C73.2782 122.13 74.9342 121.716 74.9342 121.716C74.9342 121.716 74.9342 121.716 75.3482 122.13L75.7622 122.544C75.7622 122.544 75.7622 122.544 76.1762 122.958L75.7622 122.13L75.3482 124.2L74.5202 123.786H72.0362L70.7942 122.958L69.1382 122.544V120.06L68.7242 118.818L67.4822 117.99C67.4822 117.576 66.2402 115.506 66.2402 115.092H65.4122C65.4122 115.506 66.6542 118.818 66.6542 119.646L66.2402 120.06V118.818L65.4122 117.162V115.92L64.9982 113.85L64.1702 113.022L63.7562 111.78V110.124L64.5842 108.468C64.9982 108.054 65.8262 106.812 65.8262 106.812L66.2402 105.156L65.8262 103.5L66.6542 102.258L67.0682 100.602V99.774H66.2402L65.4122 98.946L63.7562 98.532L62.9282 98.118L62.1002 98.946H60.4442L60.8582 98.118L59.2022 99.36C58.7882 99.36 57.5462 100.188 56.7182 100.602C60.4442 107.64 58.7882 117.576 49.6802 121.302L45.9542 131.238C46.3682 131.238 46.7822 131.238 46.7822 131.238C46.7822 131.238 47.1962 130.824 47.6102 130.824L48.0242 130.41C48.0242 130.41 48.0242 130.824 48.4382 130.824C49.6802 130.824 50.5082 130.41 50.9222 130.41V129.996L51.7502 130.824L52.1642 131.652V131.238C52.5782 131.238 54.2342 131.652 54.2342 131.652V130.824H55.0622H55.8902H56.7182L57.5462 130.41H57.9602C58.3742 130.41 59.6162 131.238 60.0302 131.652C60.4442 131.652 62.1002 132.066 62.1002 132.066H62.9282L63.3422 132.48H64.1702C64.1702 132.48 64.9982 132.894 65.4122 133.308C65.8262 133.722 68.3102 133.722 68.7242 133.722L69.5522 134.136L70.3802 134.55H72.4502L73.2782 134.136L73.6922 133.722L74.5202 132.48L75.3482 132.066L76.5902 130.824H77.4182H78.6602L79.9022 130.41C80.3162 130.41 82.3862 129.996 82.3862 129.996H83.2142L83.6282 129.582L84.0422 129.168V129.582H84.8702L85.2842 129.996L85.6982 130.824H86.5262V130.41H86.9402C87.3542 130.41 87.7682 130.824 87.7682 130.824L88.5962 131.652H89.0102V132.066L89.4242 132.48L89.8382 132.894V133.308C91.4942 134.55 91.0802 133.722 92.7362 134.55H93.5642L94.8062 134.964L94.3922 135.378L93.5642 135.792L93.9782 136.206V136.62L94.3922 137.034C96.4622 137.448 94.3922 137.862 95.2202 139.518C95.2202 139.932 95.6342 140.346 95.6342 140.346L95.2202 139.518H94.8062L95.2202 139.932C95.2202 140.346 95.2202 140.76 95.2202 140.76L94.8062 141.588H93.9782L93.5642 142.83L93.1502 143.658V144.486L92.7362 145.314C92.7362 145.314 92.3222 144.9 91.9082 144.9L91.4942 146.142L91.0802 145.728L90.6662 146.556L89.8382 147.384L89.0102 146.97V147.798H88.1822L87.7682 149.454L86.9402 150.282L85.6982 151.11C85.6982 151.11 83.6282 151.11 83.6282 151.524C83.6282 151.524 82.8002 151.11 82.8002 150.696C82.8002 150.696 82.3862 150.696 82.3862 151.11L81.9722 151.938L81.1442 151.524L81.5582 152.766L80.3162 154.008C80.3162 154.008 79.9022 154.422 79.4882 154.008V154.836C79.4882 154.836 78.2462 156.078 78.2462 156.492C78.2462 156.492 78.2462 157.32 77.4182 157.32C77.4182 157.32 75.7622 158.148 75.3482 158.562C75.3482 158.562 75.3482 158.976 74.9342 158.976C74.9342 158.976 72.8642 158.562 72.4502 158.562C72.4502 158.562 71.2082 157.734 71.2082 156.906C71.2082 156.906 70.7942 156.906 70.7942 156.492C69.5522 155.25 70.3802 155.664 69.9662 154.836L69.1382 154.422C69.1382 154.422 67.4822 154.008 67.0682 153.594H66.6542L65.4122 152.766C64.9982 152.352 64.1702 151.938 63.7562 151.524V150.696H63.3422L63.7562 149.454V148.626V148.212L63.3422 146.97L62.9282 146.142H62.1002C61.6862 146.142 60.8582 145.728 60.8582 145.728L60.4442 145.314L58.7882 144.9L57.9602 144.486V144.072L57.1322 143.658V143.244L56.3042 142.83V141.588C56.3042 141.174 57.1322 140.346 57.5462 139.932H56.7182L56.3042 140.346H55.4762V140.76H55.0622L54.6482 140.346C54.6482 140.346 54.2342 140.346 54.2342 139.932C53.8202 138.276 54.2342 137.862 54.2342 137.448L53.8202 137.034H53.4062C53.4062 137.034 52.9922 136.62 53.8202 135.378H52.9922C52.9922 135.378 52.5782 135.792 52.1642 135.792L51.7502 135.378H51.3362L50.9222 134.964L50.0942 134.55L49.6802 133.722H48.8522C48.8522 133.722 48.4382 134.136 48.0242 134.55C48.0242 134.55 47.1962 134.964 47.1962 134.136C47.1962 134.136 46.7822 133.722 46.3682 133.722C46.3682 133.722 45.9542 133.308 45.9542 132.894C45.9542 132.894 45.5402 132.894 44.7122 132.894H44.2982V133.308C43.8842 133.722 43.4702 134.136 43.0562 133.722L43.4702 133.308L43.8842 130.824C43.0562 131.652 42.6422 133.308 42.6422 133.722L42.2282 133.308L37.6742 120.06C32.7062 118.818 28.9802 113.436 28.9802 107.64C28.9802 99.36 35.6042 92.736 43.8842 92.736C49.2662 92.736 53.4062 95.22 55.8902 98.946L56.3042 98.118L57.1322 97.29H58.3742L59.2022 96.876V96.462L58.3742 96.048L58.7882 95.22H60.8582V93.978L62.9282 93.564L65.4122 92.736H67.0682H67.8962L68.7242 93.15L71.2082 93.564L72.4502 93.978H74.1062L75.7622 93.564C74.9342 92.736 74.1062 91.908 74.1062 91.08L70.3802 80.73L56.3042 82.8L40.5722 80.316C36.4322 79.488 32.7062 81.972 31.4642 86.112L4.55425 162.288C3.31225 165.186 6.21024 168.498 9.52224 167.67L37.2602 162.288L69.5522 169.326L103.5 162.288L137.448 169.326L169.74 162.288L168.084 155.25C167.67 155.25 167.256 155.25 166.842 154.422L162.288 141.174C150.696 136.206 150.696 122.13 158.976 115.92C161.46 114.264 164.358 113.022 168.084 113.022C176.364 113.022 182.988 119.646 182.988 127.926C182.988 134.136 179.262 139.104 173.88 141.588L169.326 154.836C169.326 155.25 168.912 155.25 168.498 155.664L170.154 162.702L198.306 168.498C200.79 168.498 203.688 165.6 202.86 162.288Z" fill="#E1E1E1"/>
<path d="M163.53 136.206C164.772 136.62 166.014 137.034 167.67 137.034C172.638 137.034 176.778 132.894 176.778 127.926C176.778 122.958 172.638 118.818 167.67 118.818C164.358 118.818 161.46 120.474 160.218 122.544L158.976 115.92L160.218 122.13C157.32 126.684 158.148 133.722 163.53 136.206ZM34.7764 107.64C34.7764 112.608 38.9164 116.748 43.8844 116.748C48.8524 116.748 52.9924 112.608 52.9924 107.64C52.9924 102.672 48.8524 98.118 43.8844 98.118C38.9164 98.118 34.7764 102.258 34.7764 107.64ZM125.442 103.914L130.824 118.404C131.238 119.232 132.48 119.232 132.894 118.404L138.276 103.914C144.072 101.43 148.212 95.634 148.212 89.01C148.212 79.902 140.76 72.864 132.066 72.864C122.958 72.864 115.92 80.316 115.92 89.01C115.506 95.634 119.646 101.43 125.442 103.914ZM131.652 78.66C137.448 78.66 142.002 83.214 142.002 89.01C142.002 94.806 137.448 99.36 131.652 99.36C125.856 99.36 121.302 94.806 121.302 89.01C121.716 83.214 126.27 78.66 131.652 78.66Z" fill="#E1E1E1"/>
</svg>
